<?xml version="1.0" encoding="utf-8" standalone="no"?>
<!DOCTYPE svg PUBLIC "-//W3C//DTD SVG 1.1//EN"
  "http://www.w3.org/Graphics/SVG/1.1/DTD/svg11.dtd">
<!-- Created with matplotlib (http://matplotlib.org/) -->
<svg height="360pt" version="1.1" viewBox="0 0 720 360" width="720pt" xmlns="http://www.w3.org/2000/svg" xmlns:xlink="http://www.w3.org/1999/xlink">
 <defs>
  <style type="text/css">
*{stroke-linecap:butt;stroke-linejoin:round;}
  </style>
 </defs>
 <g id="figure_1">
  <g id="patch_1">
   <path d="M 0 360 
L 720 360 
L 720 0 
L 0 0 
z
" style="fill:#ffffff;"/>
  </g>
  <g id="axes_1">
   <g id="patch_2">
    <path d="M 90 320.4 
L 648 320.4 
L 648 43.2 
L 90 43.2 
z
" style="fill:#ffffff;"/>
   </g>
   <g id="matplotlib.axis_1">
    <g id="xtick_1">
     <g id="line2d_1">
      <defs>
       <path d="M 0 0 
L 0 3.5 
" id="mcb0eddd22d" style="stroke:#000000;stroke-width:0.8;"/>
      </defs>
      <g>
       <use style="stroke:#000000;stroke-width:0.8;" x="115.363636" xlink:href="#mcb0eddd22d" y="320.4"/>
      </g>
     </g>
     <g id="text_1">
      <!-- 0 -->
      <defs>
       <path d="M 31.78125 66.40625 
Q 24.171875 66.40625 20.328125 58.90625 
Q 16.5 51.421875 16.5 36.375 
Q 16.5 21.390625 20.328125 13.890625 
Q 24.171875 6.390625 31.78125 6.390625 
Q 39.453125 6.390625 43.28125 13.890625 
Q 47.125 21.390625 47.125 36.375 
Q 47.125 51.421875 43.28125 58.90625 
Q 39.453125 66.40625 31.78125 66.40625 
z
M 31.78125 74.21875 
Q 44.046875 74.21875 50.515625 64.515625 
Q 56.984375 54.828125 56.984375 36.375 
Q 56.984375 17.96875 50.515625 8.265625 
Q 44.046875 -1.421875 31.78125 -1.421875 
Q 19.53125 -1.421875 13.0625 8.265625 
Q 6.59375 17.96875 6.59375 36.375 
Q 6.59375 54.828125 13.0625 64.515625 
Q 19.53125 74.21875 31.78125 74.21875 
z
" id="DejaVuSans-30"/>
      </defs>
      <g transform="translate(112.182386 334.998438)scale(0.1 -0.1)">
       <use xlink:href="#DejaVuSans-30"/>
      </g>
     </g>
    </g>
    <g id="xtick_2">
     <g id="line2d_2">
      <g>
       <use style="stroke:#000000;stroke-width:0.8;" x="234.16287" xlink:href="#mcb0eddd22d" y="320.4"/>
      </g>
     </g>
     <g id="text_2">
      <!-- 100 -->
      <defs>
       <path d="M 12.40625 8.296875 
L 28.515625 8.296875 
L 28.515625 63.921875 
L 10.984375 60.40625 
L 10.984375 69.390625 
L 28.421875 72.90625 
L 38.28125 72.90625 
L 38.28125 8.296875 
L 54.390625 8.296875 
L 54.390625 0 
L 12.40625 0 
z
" id="DejaVuSans-31"/>
      </defs>
      <g transform="translate(224.61912 334.998438)scale(0.1 -0.1)">
       <use xlink:href="#DejaVuSans-31"/>
       <use x="63.623047" xlink:href="#DejaVuSans-30"/>
       <use x="127.246094" xlink:href="#DejaVuSans-30"/>
      </g>
     </g>
    </g>
    <g id="xtick_3">
     <g id="line2d_3">
      <g>
       <use style="stroke:#000000;stroke-width:0.8;" x="352.962103" xlink:href="#mcb0eddd22d" y="320.4"/>
      </g>
     </g>
     <g id="text_3">
      <!-- 200 -->
      <defs>
       <path d="M 19.1875 8.296875 
L 53.609375 8.296875 
L 53.609375 0 
L 7.328125 0 
L 7.328125 8.296875 
Q 12.9375 14.109375 22.625 23.890625 
Q 32.328125 33.6875 34.8125 36.53125 
Q 39.546875 41.84375 41.421875 45.53125 
Q 43.3125 49.21875 43.3125 52.78125 
Q 43.3125 58.59375 39.234375 62.25 
Q 35.15625 65.921875 28.609375 65.921875 
Q 23.96875 65.921875 18.8125 64.3125 
Q 13.671875 62.703125 7.8125 59.421875 
L 7.8125 69.390625 
Q 13.765625 71.78125 18.9375 73 
Q 24.125 74.21875 28.421875 74.21875 
Q 39.75 74.21875 46.484375 68.546875 
Q 53.21875 62.890625 53.21875 53.421875 
Q 53.21875 48.921875 51.53125 44.890625 
Q 49.859375 40.875 45.40625 35.40625 
Q 44.1875 33.984375 37.640625 27.21875 
Q 31.109375 20.453125 19.1875 8.296875 
z
" id="DejaVuSans-32"/>
      </defs>
      <g transform="translate(343.418353 334.998438)scale(0.1 -0.1)">
       <use xlink:href="#DejaVuSans-32"/>
       <use x="63.623047" xlink:href="#DejaVuSans-30"/>
       <use x="127.246094" xlink:href="#DejaVuSans-30"/>
      </g>
     </g>
    </g>
    <g id="xtick_4">
     <g id="line2d_4">
      <g>
       <use style="stroke:#000000;stroke-width:0.8;" x="471.761337" xlink:href="#mcb0eddd22d" y="320.4"/>
      </g>
     </g>
     <g id="text_4">
      <!-- 300 -->
      <defs>
       <path d="M 40.578125 39.3125 
Q 47.65625 37.796875 51.625 33 
Q 55.609375 28.21875 55.609375 21.1875 
Q 55.609375 10.40625 48.1875 4.484375 
Q 40.765625 -1.421875 27.09375 -1.421875 
Q 22.515625 -1.421875 17.65625 -0.515625 
Q 12.796875 0.390625 7.625 2.203125 
L 7.625 11.71875 
Q 11.71875 9.328125 16.59375 8.109375 
Q 21.484375 6.890625 26.8125 6.890625 
Q 36.078125 6.890625 40.9375 10.546875 
Q 45.796875 14.203125 45.796875 21.1875 
Q 45.796875 27.640625 41.28125 31.265625 
Q 36.765625 34.90625 28.71875 34.90625 
L 20.21875 34.90625 
L 20.21875 43.015625 
L 29.109375 43.015625 
Q 36.375 43.015625 40.234375 45.921875 
Q 44.09375 48.828125 44.09375 54.296875 
Q 44.09375 59.90625 40.109375 62.90625 
Q 36.140625 65.921875 28.71875 65.921875 
Q 24.65625 65.921875 20.015625 65.03125 
Q 15.375 64.15625 9.8125 62.3125 
L 9.8125 71.09375 
Q 15.4375 72.65625 20.34375 73.4375 
Q 25.25 74.21875 29.59375 74.21875 
Q 40.828125 74.21875 47.359375 69.109375 
Q 53.90625 64.015625 53.90625 55.328125 
Q 53.90625 49.265625 50.4375 45.09375 
Q 46.96875 40.921875 40.578125 39.3125 
z
" id="DejaVuSans-33"/>
      </defs>
      <g transform="translate(462.217587 334.998438)scale(0.1 -0.1)">
       <use xlink:href="#DejaVuSans-33"/>
       <use x="63.623047" xlink:href="#DejaVuSans-30"/>
       <use x="127.246094" xlink:href="#DejaVuSans-30"/>
      </g>
     </g>
    </g>
    <g id="xtick_5">
     <g id="line2d_5">
      <g>
       <use style="stroke:#000000;stroke-width:0.8;" x="590.560571" xlink:href="#mcb0eddd22d" y="320.4"/>
      </g>
     </g>
     <g id="text_5">
      <!-- 400 -->
      <defs>
       <path d="M 37.796875 64.3125 
L 12.890625 25.390625 
L 37.796875 25.390625 
z
M 35.203125 72.90625 
L 47.609375 72.90625 
L 47.609375 25.390625 
L 58.015625 25.390625 
L 58.015625 17.1875 
L 47.609375 17.1875 
L 47.609375 0 
L 37.796875 0 
L 37.796875 17.1875 
L 4.890625 17.1875 
L 4.890625 26.703125 
z
" id="DejaVuSans-34"/>
      </defs>
      <g transform="translate(581.016821 334.998438)scale(0.1 -0.1)">
       <use xlink:href="#DejaVuSans-34"/>
       <use x="63.623047" xlink:href="#DejaVuSans-30"/>
       <use x="127.246094" xlink:href="#DejaVuSans-30"/>
      </g>
     </g>
    </g>
    <g id="text_6">
     <!-- Time (60m Candles) -->
     <defs>
      <path d="M -0.296875 72.90625 
L 61.375 72.90625 
L 61.375 64.59375 
L 35.5 64.59375 
L 35.5 0 
L 25.59375 0 
L 25.59375 64.59375 
L -0.296875 64.59375 
z
" id="DejaVuSans-54"/>
      <path d="M 9.421875 54.6875 
L 18.40625 54.6875 
L 18.40625 0 
L 9.421875 0 
z
M 9.421875 75.984375 
L 18.40625 75.984375 
L 18.40625 64.59375 
L 9.421875 64.59375 
z
" id="DejaVuSans-69"/>
      <path d="M 52 44.1875 
Q 55.375 50.25 60.0625 53.125 
Q 64.75 56 71.09375 56 
Q 79.640625 56 84.28125 50.015625 
Q 88.921875 44.046875 88.921875 33.015625 
L 88.921875 0 
L 79.890625 0 
L 79.890625 32.71875 
Q 79.890625 40.578125 77.09375 44.375 
Q 74.3125 48.1875 68.609375 48.1875 
Q 61.625 48.1875 57.5625 43.546875 
Q 53.515625 38.921875 53.515625 30.90625 
L 53.515625 0 
L 44.484375 0 
L 44.484375 32.71875 
Q 44.484375 40.625 41.703125 44.40625 
Q 38.921875 48.1875 33.109375 48.1875 
Q 26.21875 48.1875 22.15625 43.53125 
Q 18.109375 38.875 18.109375 30.90625 
L 18.109375 0 
L 9.078125 0 
L 9.078125 54.6875 
L 18.109375 54.6875 
L 18.109375 46.1875 
Q 21.1875 51.21875 25.484375 53.609375 
Q 29.78125 56 35.6875 56 
Q 41.65625 56 45.828125 52.96875 
Q 50 49.953125 52 44.1875 
z
" id="DejaVuSans-6d"/>
      <path d="M 56.203125 29.59375 
L 56.203125 25.203125 
L 14.890625 25.203125 
Q 15.484375 15.921875 20.484375 11.0625 
Q 25.484375 6.203125 34.421875 6.203125 
Q 39.59375 6.203125 44.453125 7.46875 
Q 49.3125 8.734375 54.109375 11.28125 
L 54.109375 2.78125 
Q 49.265625 0.734375 44.1875 -0.34375 
Q 39.109375 -1.421875 33.890625 -1.421875 
Q 20.796875 -1.421875 13.15625 6.1875 
Q 5.515625 13.8125 5.515625 26.8125 
Q 5.515625 40.234375 12.765625 48.109375 
Q 20.015625 56 32.328125 56 
Q 43.359375 56 49.78125 48.890625 
Q 56.203125 41.796875 56.203125 29.59375 
z
M 47.21875 32.234375 
Q 47.125 39.59375 43.09375 43.984375 
Q 39.0625 48.390625 32.421875 48.390625 
Q 24.90625 48.390625 20.390625 44.140625 
Q 15.875 39.890625 15.1875 32.171875 
z
" id="DejaVuSans-65"/>
      <path id="DejaVuSans-20"/>
      <path d="M 31 75.875 
Q 24.46875 64.65625 21.28125 53.65625 
Q 18.109375 42.671875 18.109375 31.390625 
Q 18.109375 20.125 21.3125 9.0625 
Q 24.515625 -2 31 -13.1875 
L 23.1875 -13.1875 
Q 15.875 -1.703125 12.234375 9.375 
Q 8.59375 20.453125 8.59375 31.390625 
Q 8.59375 42.28125 12.203125 53.3125 
Q 15.828125 64.359375 23.1875 75.875 
z
" id="DejaVuSans-28"/>
      <path d="M 33.015625 40.375 
Q 26.375 40.375 22.484375 35.828125 
Q 18.609375 31.296875 18.609375 23.390625 
Q 18.609375 15.53125 22.484375 10.953125 
Q 26.375 6.390625 33.015625 6.390625 
Q 39.65625 6.390625 43.53125 10.953125 
Q 47.40625 15.53125 47.40625 23.390625 
Q 47.40625 31.296875 43.53125 35.828125 
Q 39.65625 40.375 33.015625 40.375 
z
M 52.59375 71.296875 
L 52.59375 62.3125 
Q 48.875 64.0625 45.09375 64.984375 
Q 41.3125 65.921875 37.59375 65.921875 
Q 27.828125 65.921875 22.671875 59.328125 
Q 17.53125 52.734375 16.796875 39.40625 
Q 19.671875 43.65625 24.015625 45.921875 
Q 28.375 48.1875 33.59375 48.1875 
Q 44.578125 48.1875 50.953125 41.515625 
Q 57.328125 34.859375 57.328125 23.390625 
Q 57.328125 12.15625 50.6875 5.359375 
Q 44.046875 -1.421875 33.015625 -1.421875 
Q 20.359375 -1.421875 13.671875 8.265625 
Q 6.984375 17.96875 6.984375 36.375 
Q 6.984375 53.65625 15.1875 63.9375 
Q 23.390625 74.21875 37.203125 74.21875 
Q 40.921875 74.21875 44.703125 73.484375 
Q 48.484375 72.75 52.59375 71.296875 
z
" id="DejaVuSans-36"/>
      <path d="M 64.40625 67.28125 
L 64.40625 56.890625 
Q 59.421875 61.53125 53.78125 63.8125 
Q 48.140625 66.109375 41.796875 66.109375 
Q 29.296875 66.109375 22.65625 58.46875 
Q 16.015625 50.828125 16.015625 36.375 
Q 16.015625 21.96875 22.65625 14.328125 
Q 29.296875 6.6875 41.796875 6.6875 
Q 48.140625 6.6875 53.78125 8.984375 
Q 59.421875 11.28125 64.40625 15.921875 
L 64.40625 5.609375 
Q 59.234375 2.09375 53.4375 0.328125 
Q 47.65625 -1.421875 41.21875 -1.421875 
Q 24.65625 -1.421875 15.125 8.703125 
Q 5.609375 18.84375 5.609375 36.375 
Q 5.609375 53.953125 15.125 64.078125 
Q 24.65625 74.21875 41.21875 74.21875 
Q 47.75 74.21875 53.53125 72.484375 
Q 59.328125 70.75 64.40625 67.28125 
z
" id="DejaVuSans-43"/>
      <path d="M 34.28125 27.484375 
Q 23.390625 27.484375 19.1875 25 
Q 14.984375 22.515625 14.984375 16.5 
Q 14.984375 11.71875 18.140625 8.90625 
Q 21.296875 6.109375 26.703125 6.109375 
Q 34.1875 6.109375 38.703125 11.40625 
Q 43.21875 16.703125 43.21875 25.484375 
L 43.21875 27.484375 
z
M 52.203125 31.203125 
L 52.203125 0 
L 43.21875 0 
L 43.21875 8.296875 
Q 40.140625 3.328125 35.546875 0.953125 
Q 30.953125 -1.421875 24.3125 -1.421875 
Q 15.921875 -1.421875 10.953125 3.296875 
Q 6 8.015625 6 15.921875 
Q 6 25.140625 12.171875 29.828125 
Q 18.359375 34.515625 30.609375 34.515625 
L 43.21875 34.515625 
L 43.21875 35.40625 
Q 43.21875 41.609375 39.140625 45 
Q 35.0625 48.390625 27.6875 48.390625 
Q 23 48.390625 18.546875 47.265625 
Q 14.109375 46.140625 10.015625 43.890625 
L 10.015625 52.203125 
Q 14.9375 54.109375 19.578125 55.046875 
Q 24.21875 56 28.609375 56 
Q 40.484375 56 46.34375 49.84375 
Q 52.203125 43.703125 52.203125 31.203125 
z
" id="DejaVuSans-61"/>
      <path d="M 54.890625 33.015625 
L 54.890625 0 
L 45.90625 0 
L 45.90625 32.71875 
Q 45.90625 40.484375 42.875 44.328125 
Q 39.84375 48.1875 33.796875 48.1875 
Q 26.515625 48.1875 22.3125 43.546875 
Q 18.109375 38.921875 18.109375 30.90625 
L 18.109375 0 
L 9.078125 0 
L 9.078125 54.6875 
L 18.109375 54.6875 
L 18.109375 46.1875 
Q 21.34375 51.125 25.703125 53.5625 
Q 30.078125 56 35.796875 56 
Q 45.21875 56 50.046875 50.171875 
Q 54.890625 44.34375 54.890625 33.015625 
z
" id="DejaVuSans-6e"/>
      <path d="M 45.40625 46.390625 
L 45.40625 75.984375 
L 54.390625 75.984375 
L 54.390625 0 
L 45.40625 0 
L 45.40625 8.203125 
Q 42.578125 3.328125 38.25 0.953125 
Q 33.9375 -1.421875 27.875 -1.421875 
Q 17.96875 -1.421875 11.734375 6.484375 
Q 5.515625 14.40625 5.515625 27.296875 
Q 5.515625 40.1875 11.734375 48.09375 
Q 17.96875 56 27.875 56 
Q 33.9375 56 38.25 53.625 
Q 42.578125 51.265625 45.40625 46.390625 
z
M 14.796875 27.296875 
Q 14.796875 17.390625 18.875 11.75 
Q 22.953125 6.109375 30.078125 6.109375 
Q 37.203125 6.109375 41.296875 11.75 
Q 45.40625 17.390625 45.40625 27.296875 
Q 45.40625 37.203125 41.296875 42.84375 
Q 37.203125 48.484375 30.078125 48.484375 
Q 22.953125 48.484375 18.875 42.84375 
Q 14.796875 37.203125 14.796875 27.296875 
z
" id="DejaVuSans-64"/>
      <path d="M 9.421875 75.984375 
L 18.40625 75.984375 
L 18.40625 0 
L 9.421875 0 
z
" id="DejaVuSans-6c"/>
      <path d="M 44.28125 53.078125 
L 44.28125 44.578125 
Q 40.484375 46.53125 36.375 47.5 
Q 32.28125 48.484375 27.875 48.484375 
Q 21.1875 48.484375 17.84375 46.4375 
Q 14.5 44.390625 14.5 40.28125 
Q 14.5 37.15625 16.890625 35.375 
Q 19.28125 33.59375 26.515625 31.984375 
L 29.59375 31.296875 
Q 39.15625 29.25 43.1875 25.515625 
Q 47.21875 21.78125 47.21875 15.09375 
Q 47.21875 7.46875 41.1875 3.015625 
Q 35.15625 -1.421875 24.609375 -1.421875 
Q 20.21875 -1.421875 15.453125 -0.5625 
Q 10.6875 0.296875 5.421875 2 
L 5.421875 11.28125 
Q 10.40625 8.6875 15.234375 7.390625 
Q 20.0625 6.109375 24.8125 6.109375 
Q 31.15625 6.109375 34.5625 8.28125 
Q 37.984375 10.453125 37.984375 14.40625 
Q 37.984375 18.0625 35.515625 20.015625 
Q 33.0625 21.96875 24.703125 23.78125 
L 21.578125 24.515625 
Q 13.234375 26.265625 9.515625 29.90625 
Q 5.8125 33.546875 5.8125 39.890625 
Q 5.8125 47.609375 11.28125 51.796875 
Q 16.75 56 26.8125 56 
Q 31.78125 56 36.171875 55.265625 
Q 40.578125 54.546875 44.28125 53.078125 
z
" id="DejaVuSans-73"/>
      <path d="M 8.015625 75.875 
L 15.828125 75.875 
Q 23.140625 64.359375 26.78125 53.3125 
Q 30.421875 42.28125 30.421875 31.390625 
Q 30.421875 20.453125 26.78125 9.375 
Q 23.140625 -1.703125 15.828125 -13.1875 
L 8.015625 -13.1875 
Q 14.5 -2 17.703125 9.0625 
Q 20.90625 20.125 20.90625 31.390625 
Q 20.90625 42.671875 17.703125 53.65625 
Q 14.5 64.65625 8.015625 75.875 
z
" id="DejaVuSans-29"/>
     </defs>
     <g transform="translate(318.33125 348.676562)scale(0.1 -0.1)">
      <use xlink:href="#DejaVuSans-54"/>
      <use x="61.037109" xlink:href="#DejaVuSans-69"/>
      <use x="88.820312" xlink:href="#DejaVuSans-6d"/>
      <use x="186.232422" xlink:href="#DejaVuSans-65"/>
      <use x="247.755859" xlink:href="#DejaVuSans-20"/>
      <use x="279.542969" xlink:href="#DejaVuSans-28"/>
      <use x="318.556641" xlink:href="#DejaVuSans-36"/>
      <use x="382.179688" xlink:href="#DejaVuSans-30"/>
      <use x="445.802734" xlink:href="#DejaVuSans-6d"/>
      <use x="543.214844" xlink:href="#DejaVuSans-20"/>
      <use x="575.001953" xlink:href="#DejaVuSans-43"/>
      <use x="644.826172" xlink:href="#DejaVuSans-61"/>
      <use x="706.105469" xlink:href="#DejaVuSans-6e"/>
      <use x="769.484375" xlink:href="#DejaVuSans-64"/>
      <use x="832.960938" xlink:href="#DejaVuSans-6c"/>
      <use x="860.744141" xlink:href="#DejaVuSans-65"/>
      <use x="922.267578" xlink:href="#DejaVuSans-73"/>
      <use x="974.367188" xlink:href="#DejaVuSans-29"/>
     </g>
    </g>
   </g>
   <g id="matplotlib.axis_2">
    <g id="ytick_1">
     <g id="line2d_6">
      <defs>
       <path d="M 0 0 
L -3.5 0 
" id="mb32ca70dfb" style="stroke:#000000;stroke-width:0.8;"/>
      </defs>
      <g>
       <use style="stroke:#000000;stroke-width:0.8;" x="90" xlink:href="#mb32ca70dfb" y="270.727053"/>
      </g>
     </g>
     <g id="text_7">
      <!-- 6500 -->
      <defs>
       <path d="M 10.796875 72.90625 
L 49.515625 72.90625 
L 49.515625 64.59375 
L 19.828125 64.59375 
L 19.828125 46.734375 
Q 21.96875 47.46875 24.109375 47.828125 
Q 26.265625 48.1875 28.421875 48.1875 
Q 40.625 48.1875 47.75 41.5 
Q 54.890625 34.8125 54.890625 23.390625 
Q 54.890625 11.625 47.5625 5.09375 
Q 40.234375 -1.421875 26.90625 -1.421875 
Q 22.3125 -1.421875 17.546875 -0.640625 
Q 12.796875 0.140625 7.71875 1.703125 
L 7.71875 11.625 
Q 12.109375 9.234375 16.796875 8.0625 
Q 21.484375 6.890625 26.703125 6.890625 
Q 35.15625 6.890625 40.078125 11.328125 
Q 45.015625 15.765625 45.015625 23.390625 
Q 45.015625 31 40.078125 35.4375 
Q 35.15625 39.890625 26.703125 39.890625 
Q 22.75 39.890625 18.8125 39.015625 
Q 14.890625 38.140625 10.796875 36.28125 
z
" id="DejaVuSans-35"/>
      </defs>
      <g transform="translate(57.55 274.526272)scale(0.1 -0.1)">
       <use xlink:href="#DejaVuSans-36"/>
       <use x="63.623047" xlink:href="#DejaVuSans-35"/>
       <use x="127.246094" xlink:href="#DejaVuSans-30"/>
       <use x="190.869141" xlink:href="#DejaVuSans-30"/>
      </g>
     </g>
    </g>
    <g id="ytick_2">
     <g id="line2d_7">
      <g>
       <use style="stroke:#000000;stroke-width:0.8;" x="90" xlink:href="#mb32ca70dfb" y="215.283665"/>
      </g>
     </g>
     <g id="text_8">
      <!-- 7000 -->
      <defs>
       <path d="M 8.203125 72.90625 
L 55.078125 72.90625 
L 55.078125 68.703125 
L 28.609375 0 
L 18.3125 0 
L 43.21875 64.59375 
L 8.203125 64.59375 
z
" id="DejaVuSans-37"/>
      </defs>
      <g transform="translate(57.55 219.082883)scale(0.1 -0.1)">
       <use xlink:href="#DejaVuSans-37"/>
       <use x="63.623047" xlink:href="#DejaVuSans-30"/>
       <use x="127.246094" xlink:href="#DejaVuSans-30"/>
       <use x="190.869141" xlink:href="#DejaVuSans-30"/>
      </g>
     </g>
    </g>
    <g id="ytick_3">
     <g id="line2d_8">
      <g>
       <use style="stroke:#000000;stroke-width:0.8;" x="90" xlink:href="#mb32ca70dfb" y="159.840276"/>
      </g>
     </g>
     <g id="text_9">
      <!-- 7500 -->
      <g transform="translate(57.55 163.639495)scale(0.1 -0.1)">
       <use xlink:href="#DejaVuSans-37"/>
       <use x="63.623047" xlink:href="#DejaVuSans-35"/>
       <use x="127.246094" xlink:href="#DejaVuSans-30"/>
       <use x="190.869141" xlink:href="#DejaVuSans-30"/>
      </g>
     </g>
    </g>
    <g id="ytick_4">
     <g id="line2d_9">
      <g>
       <use style="stroke:#000000;stroke-width:0.8;" x="90" xlink:href="#mb32ca70dfb" y="104.396888"/>
      </g>
     </g>
     <g id="text_10">
      <!-- 8000 -->
      <defs>
       <path d="M 31.78125 34.625 
Q 24.75 34.625 20.71875 30.859375 
Q 16.703125 27.09375 16.703125 20.515625 
Q 16.703125 13.921875 20.71875 10.15625 
Q 24.75 6.390625 31.78125 6.390625 
Q 38.8125 6.390625 42.859375 10.171875 
Q 46.921875 13.96875 46.921875 20.515625 
Q 46.921875 27.09375 42.890625 30.859375 
Q 38.875 34.625 31.78125 34.625 
z
M 21.921875 38.8125 
Q 15.578125 40.375 12.03125 44.71875 
Q 8.5 49.078125 8.5 55.328125 
Q 8.5 64.0625 14.71875 69.140625 
Q 20.953125 74.21875 31.78125 74.21875 
Q 42.671875 74.21875 48.875 69.140625 
Q 55.078125 64.0625 55.078125 55.328125 
Q 55.078125 49.078125 51.53125 44.71875 
Q 48 40.375 41.703125 38.8125 
Q 48.828125 37.15625 52.796875 32.3125 
Q 56.78125 27.484375 56.78125 20.515625 
Q 56.78125 9.90625 50.3125 4.234375 
Q 43.84375 -1.421875 31.78125 -1.421875 
Q 19.734375 -1.421875 13.25 4.234375 
Q 6.78125 9.90625 6.78125 20.515625 
Q 6.78125 27.484375 10.78125 32.3125 
Q 14.796875 37.15625 21.921875 38.8125 
z
M 18.3125 54.390625 
Q 18.3125 48.734375 21.84375 45.5625 
Q 25.390625 42.390625 31.78125 42.390625 
Q 38.140625 42.390625 41.71875 45.5625 
Q 45.3125 48.734375 45.3125 54.390625 
Q 45.3125 60.0625 41.71875 63.234375 
Q 38.140625 66.40625 31.78125 66.40625 
Q 25.390625 66.40625 21.84375 63.234375 
Q 18.3125 60.0625 18.3125 54.390625 
z
" id="DejaVuSans-38"/>
      </defs>
      <g transform="translate(57.55 108.196107)scale(0.1 -0.1)">
       <use xlink:href="#DejaVuSans-38"/>
       <use x="63.623047" xlink:href="#DejaVuSans-30"/>
       <use x="127.246094" xlink:href="#DejaVuSans-30"/>
       <use x="190.869141" xlink:href="#DejaVuSans-30"/>
      </g>
     </g>
    </g>
    <g id="ytick_5">
     <g id="line2d_10">
      <g>
       <use style="stroke:#000000;stroke-width:0.8;" x="90" xlink:href="#mb32ca70dfb" y="48.9535"/>
      </g>
     </g>
     <g id="text_11">
      <!-- 8500 -->
      <g transform="translate(57.55 52.752718)scale(0.1 -0.1)">
       <use xlink:href="#DejaVuSans-38"/>
       <use x="63.623047" xlink:href="#DejaVuSans-35"/>
       <use x="127.246094" xlink:href="#DejaVuSans-30"/>
       <use x="190.869141" xlink:href="#DejaVuSans-30"/>
      </g>
     </g>
    </g>
    <g id="text_12">
     <!-- Price (USD) -->
     <defs>
      <path d="M 19.671875 64.796875 
L 19.671875 37.40625 
L 32.078125 37.40625 
Q 38.96875 37.40625 42.71875 40.96875 
Q 46.484375 44.53125 46.484375 51.125 
Q 46.484375 57.671875 42.71875 61.234375 
Q 38.96875 64.796875 32.078125 64.796875 
z
M 9.8125 72.90625 
L 32.078125 72.90625 
Q 44.34375 72.90625 50.609375 67.359375 
Q 56.890625 61.8125 56.890625 51.125 
Q 56.890625 40.328125 50.609375 34.8125 
Q 44.34375 29.296875 32.078125 29.296875 
L 19.671875 29.296875 
L 19.671875 0 
L 9.8125 0 
z
" id="DejaVuSans-50"/>
      <path d="M 41.109375 46.296875 
Q 39.59375 47.171875 37.8125 47.578125 
Q 36.03125 48 33.890625 48 
Q 26.265625 48 22.1875 43.046875 
Q 18.109375 38.09375 18.109375 28.8125 
L 18.109375 0 
L 9.078125 0 
L 9.078125 54.6875 
L 18.109375 54.6875 
L 18.109375 46.1875 
Q 20.953125 51.171875 25.484375 53.578125 
Q 30.03125 56 36.53125 56 
Q 37.453125 56 38.578125 55.875 
Q 39.703125 55.765625 41.0625 55.515625 
z
" id="DejaVuSans-72"/>
      <path d="M 48.78125 52.59375 
L 48.78125 44.1875 
Q 44.96875 46.296875 41.140625 47.34375 
Q 37.3125 48.390625 33.40625 48.390625 
Q 24.65625 48.390625 19.8125 42.84375 
Q 14.984375 37.3125 14.984375 27.296875 
Q 14.984375 17.28125 19.8125 11.734375 
Q 24.65625 6.203125 33.40625 6.203125 
Q 37.3125 6.203125 41.140625 7.25 
Q 44.96875 8.296875 48.78125 10.40625 
L 48.78125 2.09375 
Q 45.015625 0.34375 40.984375 -0.53125 
Q 36.96875 -1.421875 32.421875 -1.421875 
Q 20.0625 -1.421875 12.78125 6.34375 
Q 5.515625 14.109375 5.515625 27.296875 
Q 5.515625 40.671875 12.859375 48.328125 
Q 20.21875 56 33.015625 56 
Q 37.15625 56 41.109375 55.140625 
Q 45.0625 54.296875 48.78125 52.59375 
z
" id="DejaVuSans-63"/>
      <path d="M 8.6875 72.90625 
L 18.609375 72.90625 
L 18.609375 28.609375 
Q 18.609375 16.890625 22.84375 11.734375 
Q 27.09375 6.59375 36.625 6.59375 
Q 46.09375 6.59375 50.34375 11.734375 
Q 54.59375 16.890625 54.59375 28.609375 
L 54.59375 72.90625 
L 64.5 72.90625 
L 64.5 27.390625 
Q 64.5 13.140625 57.4375 5.859375 
Q 50.390625 -1.421875 36.625 -1.421875 
Q 22.796875 -1.421875 15.734375 5.859375 
Q 8.6875 13.140625 8.6875 27.390625 
z
" id="DejaVuSans-55"/>
      <path d="M 53.515625 70.515625 
L 53.515625 60.890625 
Q 47.90625 63.578125 42.921875 64.890625 
Q 37.9375 66.21875 33.296875 66.21875 
Q 25.25 66.21875 20.875 63.09375 
Q 16.5 59.96875 16.5 54.203125 
Q 16.5 49.359375 19.40625 46.890625 
Q 22.3125 44.4375 30.421875 42.921875 
L 36.375 41.703125 
Q 47.40625 39.59375 52.65625 34.296875 
Q 57.90625 29 57.90625 20.125 
Q 57.90625 9.515625 50.796875 4.046875 
Q 43.703125 -1.421875 29.984375 -1.421875 
Q 24.8125 -1.421875 18.96875 -0.25 
Q 13.140625 0.921875 6.890625 3.21875 
L 6.890625 13.375 
Q 12.890625 10.015625 18.65625 8.296875 
Q 24.421875 6.59375 29.984375 6.59375 
Q 38.421875 6.59375 43.015625 9.90625 
Q 47.609375 13.234375 47.609375 19.390625 
Q 47.609375 24.75 44.3125 27.78125 
Q 41.015625 30.8125 33.5 32.328125 
L 27.484375 33.5 
Q 16.453125 35.6875 11.515625 40.375 
Q 6.59375 45.0625 6.59375 53.421875 
Q 6.59375 63.09375 13.40625 68.65625 
Q 20.21875 74.21875 32.171875 74.21875 
Q 37.3125 74.21875 42.625 73.28125 
Q 47.953125 72.359375 53.515625 70.515625 
z
" id="DejaVuSans-53"/>
      <path d="M 19.671875 64.796875 
L 19.671875 8.109375 
L 31.59375 8.109375 
Q 46.6875 8.109375 53.6875 14.9375 
Q 60.6875 21.78125 60.6875 36.53125 
Q 60.6875 51.171875 53.6875 57.984375 
Q 46.6875 64.796875 31.59375 64.796875 
z
M 9.8125 72.90625 
L 30.078125 72.90625 
Q 51.265625 72.90625 61.171875 64.09375 
Q 71.09375 55.28125 71.09375 36.53125 
Q 71.09375 17.671875 61.125 8.828125 
Q 51.171875 0 30.078125 0 
L 9.8125 0 
z
" id="DejaVuSans-44"/>
     </defs>
     <g transform="translate(51.470312 210.258594)rotate(-90)scale(0.1 -0.1)">
      <use xlink:href="#DejaVuSans-50"/>
      <use x="60.287109" xlink:href="#DejaVuSans-72"/>
      <use x="101.400391" xlink:href="#DejaVuSans-69"/>
      <use x="129.183594" xlink:href="#DejaVuSans-63"/>
      <use x="184.164062" xlink:href="#DejaVuSans-65"/>
      <use x="245.6875" xlink:href="#DejaVuSans-20"/>
      <use x="277.474609" xlink:href="#DejaVuSans-28"/>
      <use x="316.488281" xlink:href="#DejaVuSans-55"/>
      <use x="389.681641" xlink:href="#DejaVuSans-53"/>
      <use x="453.158203" xlink:href="#DejaVuSans-44"/>
      <use x="530.160156" xlink:href="#DejaVuSans-29"/>
     </g>
    </g>
   </g>
   <g id="line2d_11">
    <path clip-path="url(#p21c9155025)" d="M 115.363636 307.594361 
L 116.551629 306.573586 
L 117.739621 306.59037 
L 118.927613 307.421101 
L 120.115606 306.96353 
L 121.303598 307.241884 
L 122.49159 307.8 
L 123.679583 305.24576 
L 124.867575 304.2977 
L 126.055567 304.511785 
L 127.24356 303.737635 
L 128.431552 303.788259 
L 129.619544 302.143042 
L 130.807537 300.874287 
L 131.995529 299.188678 
L 133.183521 302.092688 
L 134.371514 296.961738 
L 135.559506 299.358582 
L 136.747498 299.612842 
L 137.935491 301.876545 
L 139.123483 302.095991 
L 141.499468 303.233988 
L 142.68746 302.832402 
L 143.875452 301.037314 
L 145.063445 300.19922 
L 146.251437 299.519335 
L 147.439429 300.027368 
L 148.627422 294.092705 
L 149.815414 294.81217 
L 151.003406 291.354267 
L 152.191399 291.573659 
L 153.379391 291.098275 
L 154.567383 292.258417 
L 155.755376 291.594883 
L 156.943368 290.141335 
L 158.13136 288.356372 
L 159.319353 288.47067 
L 160.507345 288.84226 
L 161.695337 290.620509 
L 162.88333 289.494965 
L 164.071322 288.625088 
L 165.259314 288.655192 
L 166.447307 289.967966 
L 167.635299 289.692373 
L 168.823291 291.136013 
L 170.011284 291.285288 
L 171.199276 290.722949 
L 173.575261 290.663499 
L 174.763253 289.492312 
L 175.951245 290.471234 
L 177.139238 288.639057 
L 178.32723 278.190578 
L 180.703215 261.331239 
L 181.891207 259.115778 
L 183.079199 262.105281 
L 184.267192 261.796661 
L 185.455184 258.952155 
L 186.643176 259.16467 
L 187.831169 254.226906 
L 189.019161 252.746123 
L 190.207154 254.026032 
L 191.395146 254.098693 
L 192.583138 255.529825 
L 193.771131 254.334977 
L 194.959123 249.043165 
L 196.147115 246.763976 
L 197.335108 246.590716 
L 198.5231 248.416612 
L 199.711092 246.639824 
L 200.899085 245.803355 
L 202.087077 249.720723 
L 203.275069 252.220765 
L 204.463062 252.583096 
L 205.651054 249.498895 
L 206.839046 249.14658 
L 208.027039 250.444194 
L 209.215031 249.429374 
L 210.403023 252.084593 
L 211.591016 251.098415 
L 212.779008 249.276796 
L 213.967 243.856501 
L 215.154993 242.345669 
L 217.530977 172.478553 
L 218.71897 174.794777 
L 219.906962 180.864907 
L 221.094954 177.196764 
L 222.282947 175.584845 
L 223.470939 180.95993 
L 224.658931 177.726508 
L 225.846924 177.342519 
L 227.034916 171.043847 
L 228.222908 159.850564 
L 229.410901 162.401555 
L 230.598893 164.183703 
L 231.786885 163.102665 
L 232.974878 163.726782 
L 234.16287 167.128862 
L 235.350862 173.288655 
L 236.538855 169.00614 
L 237.726847 169.287743 
L 238.914839 166.095633 
L 240.102832 166.230776 
L 241.290824 161.035666 
L 242.478816 167.502076 
L 243.666809 168.020667 
L 244.854801 162.960699 
L 246.042793 154.98898 
L 247.230786 169.969848 
L 248.418778 173.804484 
L 249.60677 179.055904 
L 250.794763 177.228167 
L 251.982755 175.13453 
L 253.170747 175.511751 
L 254.35874 179.778184 
L 255.546732 181.282898 
L 256.734724 179.222397 
L 259.110709 181.259725 
L 260.298701 178.364919 
L 261.486694 179.137878 
L 262.674686 181.141474 
L 263.862678 174.082459 
L 265.050671 170.389843 
L 266.238663 171.102918 
L 267.426655 167.828402 
L 268.614648 162.591546 
L 269.80264 162.995352 
L 270.990632 165.081517 
L 272.178625 173.03093 
L 273.366617 171.508619 
L 274.554609 167.446795 
L 275.742602 165.503623 
L 276.930594 164.055327 
L 278.118586 167.637003 
L 279.306579 157.283329 
L 280.494571 161.43828 
L 281.682563 164.18484 
L 282.870556 168.555988 
L 284.058548 164.977832 
L 285.24654 165.382828 
L 287.622525 168.387004 
L 288.810517 170.973568 
L 289.99851 171.082669 
L 291.186502 164.285168 
L 292.374494 165.232633 
L 293.562487 167.32979 
L 294.750479 162.770221 
L 295.938471 161.924439 
L 297.126464 166.171326 
L 298.314456 164.120029 
L 299.502448 163.556499 
L 300.690441 150.200274 
L 303.066425 176.604808 
L 304.254418 174.925155 
L 305.44241 177.30516 
L 306.630402 177.248417 
L 307.818395 179.862595 
L 309.006387 178.01986 
L 310.194379 180.522339 
L 311.382372 189.978577 
L 312.570364 185.682526 
L 313.758356 184.834253 
L 314.946349 185.079904 
L 317.322333 180.072402 
L 318.510326 180.962475 
L 320.88631 181.773172 
L 322.074303 182.12998 
L 323.262295 183.624894 
L 324.450287 180.226929 
L 325.63828 178.239143 
L 326.826272 177.331095 
L 328.014264 175.457661 
L 329.202257 172.02748 
L 330.390249 171.87918 
L 331.578241 170.076999 
L 332.766234 168.789131 
L 333.954226 168.908411 
L 335.142218 170.361688 
L 336.330211 170.975085 
L 337.518203 169.915758 
L 338.706195 170.296336 
L 339.894188 166.436036 
L 341.08218 164.391128 
L 342.270172 169.48591 
L 343.458165 171.206279 
L 344.646157 172.511852 
L 345.834149 171.881995 
L 347.022142 173.67416 
L 348.210134 169.540324 
L 349.398126 168.050175 
L 350.586119 167.620868 
L 351.774111 166.523695 
L 352.962103 167.922016 
L 354.150096 165.815005 
L 355.338088 164.080071 
L 356.52608 159.626787 
L 357.714073 159.642164 
L 358.902065 160.989481 
L 360.090057 160.94844 
L 361.27805 159.889114 
L 362.466042 160.042179 
L 363.654034 156.949965 
L 364.842027 173.995504 
L 366.030019 171.919355 
L 367.218011 167.767977 
L 368.406004 161.923681 
L 369.593996 148.746347 
L 370.781989 145.703512 
L 371.969981 142.052694 
L 373.157973 142.834425 
L 374.345966 141.864923 
L 375.533958 134.21693 
L 376.72195 133.519015 
L 377.909943 137.956435 
L 379.097935 137.914582 
L 380.285927 139.047219 
L 381.47392 138.744067 
L 382.661912 136.911187 
L 383.849904 137.22912 
L 386.225889 134.826807 
L 387.413881 134.347796 
L 388.601874 130.105511 
L 389.789866 129.970746 
L 390.977858 132.57599 
L 392.165851 134.752305 
L 393.353843 132.167203 
L 394.541835 136.802628 
L 395.729828 136.344841 
L 396.91782 135.14891 
L 398.105812 132.886018 
L 399.293805 132.15096 
L 400.481797 125.28421 
L 401.669789 108.690773 
L 402.857782 105.80593 
L 404.045774 105.534885 
L 405.233766 104.374256 
L 406.421759 105.159397 
L 407.609751 95.95482 
L 408.797743 81.261077 
L 409.985736 70.501919 
L 411.173728 80.377989 
L 412.36172 78.720535 
L 413.549713 84.378955 
L 414.737705 84.562341 
L 415.925697 79.195702 
L 417.11369 77.235908 
L 418.301682 73.582925 
L 419.489674 76.937575 
L 420.677667 77.103039 
L 421.865659 71.230805 
L 423.053651 58.168364 
L 424.241644 55.8 
L 425.429636 57.437962 
L 426.617628 60.007958 
L 427.805621 65.9038 
L 428.993613 61.203998 
L 430.181605 58.115953 
L 431.369598 58.025099 
L 432.55759 67.71643 
L 433.745582 68.76444 
L 434.933575 73.877577 
L 436.121567 79.762156 
L 437.309559 80.592616 
L 438.497552 82.643371 
L 439.685544 82.342331 
L 440.873536 83.547304 
L 442.061529 85.697955 
L 443.249521 90.88018 
L 444.437513 88.036378 
L 445.625506 93.816513 
L 446.813498 92.085911 
L 448.00149 85.849125 
L 449.189483 76.140468 
L 450.377475 72.61115 
L 451.565467 77.37809 
L 452.75346 83.405447 
L 453.941452 79.631236 
L 455.129444 81.970579 
L 456.317437 83.583202 
L 457.505429 81.375212 
L 458.693421 81.692062 
L 459.881414 80.197473 
L 461.069406 75.127327 
L 462.257398 78.48111 
L 463.445391 76.680392 
L 464.633383 74.476192 
L 465.821375 74.481606 
L 467.009368 78.771647 
L 468.19736 80.576264 
L 469.385352 83.006352 
L 470.573345 82.207513 
L 471.761337 83.302249 
L 472.949329 80.859437 
L 474.137322 81.836627 
L 476.513306 75.047952 
L 477.701299 91.220041 
L 478.889291 105.259292 
L 480.077283 111.96177 
L 481.265276 112.021816 
L 482.453268 115.613562 
L 483.64126 116.520256 
L 484.829253 118.64703 
L 486.017245 114.949432 
L 487.205237 113.876841 
L 488.39323 115.812324 
L 489.581222 117.513093 
L 490.769214 112.577657 
L 491.957207 110.010964 
L 493.145199 113.07302 
L 494.333191 112.874799 
L 495.521184 117.027097 
L 496.709176 123.523774 
L 497.897168 121.414651 
L 499.085161 100.98295 
L 500.273153 82.603088 
L 501.461145 86.352772 
L 502.649138 80.4905 
L 503.83713 76.233812 
L 505.025122 82.918964 
L 506.213115 79.051463 
L 507.401107 78.586041 
L 508.589099 77.735332 
L 509.777092 84.005849 
L 510.965084 86.050811 
L 512.153076 84.607172 
L 513.341069 85.942686 
L 514.529061 84.14619 
L 515.717053 80.965884 
L 516.905046 84.915846 
L 518.093038 83.74807 
L 519.28103 83.276206 
L 521.657015 84.404944 
L 522.845007 84.369426 
L 525.220992 85.69227 
L 526.408984 89.023909 
L 527.596977 90.687319 
L 528.784969 89.786418 
L 529.972961 84.402616 
L 531.160954 86.15244 
L 532.348946 85.791083 
L 533.536938 85.977934 
L 534.724931 89.366207 
L 535.912923 87.597162 
L 537.100915 83.835621 
L 538.288908 77.875348 
L 539.4769 79.004141 
L 540.664892 77.116792 
L 541.852885 80.152101 
L 543.040877 81.619726 
L 544.228869 83.460891 
L 545.416862 82.879764 
L 546.604854 83.005161 
L 547.792846 86.376866 
L 551.356824 88.299571 
L 552.544816 83.336522 
L 553.732808 82.120774 
L 554.920801 81.827422 
L 556.108793 81.168057 
L 557.296785 81.315004 
L 558.484778 85.3046 
L 559.67277 82.953833 
L 560.860762 82.236425 
L 562.048755 82.554575 
L 563.236747 84.130705 
L 564.424739 84.913626 
L 565.612732 79.585538 
L 566.800724 82.386946 
L 567.988716 80.738371 
L 569.176709 82.647378 
L 570.364701 83.394456 
L 571.552693 85.482571 
L 572.740686 85.949183 
L 573.928678 86.197433 
L 575.11667 90.013498 
L 576.304663 86.5145 
L 577.492655 87.877628 
L 578.680647 88.545872 
L 579.86864 89.35462 
L 581.056632 88.290367 
L 582.244624 90.570585 
L 583.432617 87.25389 
L 584.620609 85.738401 
L 585.808601 92.491611 
L 586.996594 92.845875 
L 588.184586 113.218938 
L 589.372578 96.92535 
L 590.560571 86.909967 
L 591.748563 89.040098 
L 594.124548 85.542454 
L 595.31254 86.977864 
L 596.500532 92.21656 
L 597.688525 92.221541 
L 598.876517 92.865746 
L 600.064509 93.287311 
L 601.252502 93.220605 
L 602.440494 92.09831 
L 603.628486 92.723293 
L 604.816479 94.139969 
L 606.004471 102.34846 
L 607.192463 104.842222 
L 608.380456 107.018537 
L 609.568448 107.785215 
L 610.75644 127.173617 
L 611.944433 132.016142 
L 613.132425 132.508635 
L 614.320417 129.115976 
L 615.50841 126.178884 
L 616.696402 133.614796 
L 617.884394 132.781141 
L 619.072387 133.437474 
L 620.260379 138.744338 
L 621.448371 138.227155 
L 622.636364 134.196735 
L 622.636364 134.196735 
" style="fill:none;stroke:#008000;stroke-linecap:square;stroke-width:1.5;"/>
   </g>
   <g id="line2d_12">
    <path clip-path="url(#p21c9155025)" d="M 115.363636 301.77535 
L 116.551629 301.220916 
L 117.739621 303.438652 
L 118.927613 301.772024 
L 120.115606 302.233313 
L 121.303598 303.975344 
L 123.679583 300.14975 
L 124.867575 300.280597 
L 126.055567 299.430095 
L 127.24356 299.227172 
L 128.431552 299.412353 
L 129.619544 296.471636 
L 130.807537 296.453894 
L 131.995529 299.446728 
L 133.183521 296.785445 
L 134.371514 295.735348 
L 135.559506 296.081314 
L 136.747498 298.32788 
L 137.935491 298.598444 
L 139.123483 298.439876 
L 140.311475 299.318099 
L 141.499468 298.993201 
L 142.68746 298.124958 
L 145.063445 295.129906 
L 147.439429 295.592304 
L 148.627422 291.356429 
L 149.815414 292.532937 
L 151.003406 289.022262 
L 152.191399 286.763499 
L 153.379391 289.150891 
L 154.567383 287.515311 
L 155.755376 287.935572 
L 156.943368 284.5879 
L 158.13136 283.891531 
L 159.319353 284.21532 
L 160.507345 287.096159 
L 161.695337 285.755538 
L 162.88333 284.5879 
L 164.071322 284.31401 
L 165.259314 285.731143 
L 166.447307 287.500896 
L 167.635299 286.939808 
L 168.823291 288.31924 
L 170.011284 287.270251 
L 171.199276 286.454124 
L 172.387268 287.35896 
L 173.575261 286.192432 
L 174.763253 286.192432 
L 175.951245 286.52731 
L 177.139238 285.585881 
L 178.32723 268.765466 
L 179.515222 266.104183 
L 180.703215 256.536872 
L 181.891207 259.332328 
L 183.079199 261.300568 
L 184.267192 257.131225 
L 185.455184 256.533545 
L 186.643176 257.920739 
L 187.831169 252.467327 
L 189.019161 252.466218 
L 190.207154 251.383964 
L 191.395146 252.607045 
L 192.583138 252.986277 
L 193.771131 252.069244 
L 194.959123 245.356158 
L 196.147115 244.469064 
L 197.335108 246.44174 
L 199.711092 243.892453 
L 200.899085 247.267846 
L 202.087077 249.547679 
L 203.275069 251.418338 
L 204.463062 249.228325 
L 205.651054 246.331962 
L 206.839046 248.810281 
L 208.027039 246.45172 
L 209.215031 250.410378 
L 210.403023 248.372279 
L 211.591016 249.267135 
L 212.779008 246.442849 
L 213.967 239.504663 
L 215.154993 242.006269 
L 216.342985 194.506809 
L 217.530977 177.028835 
L 218.71897 181.11834 
L 219.906962 180.406447 
L 221.094954 175.626118 
L 222.282947 179.781045 
L 223.470939 180.35433 
L 224.658931 177.026618 
L 225.846924 178.114417 
L 227.034916 169.913231 
L 228.222908 163.721313 
L 229.410901 166.714147 
L 230.598893 164.382199 
L 231.786885 163.861031 
L 232.974878 166.536729 
L 234.16287 174.427432 
L 235.350862 170.928954 
L 236.538855 170.37452 
L 237.726847 169.484099 
L 238.914839 167.71102 
L 240.102832 165.579776 
L 241.290824 166.15306 
L 242.478816 169.039443 
L 243.666809 166.593281 
L 244.854801 159.482112 
L 246.042793 168.062531 
L 247.230786 171.484497 
L 248.418778 178.142139 
L 249.60677 179.060281 
L 250.794763 175.142651 
L 251.982755 173.258685 
L 253.170747 177.049904 
L 254.35874 181.523077 
L 255.546732 179.183366 
L 257.922717 180.331044 
L 260.298701 177.470165 
L 261.486694 180.572777 
L 262.674686 179.486086 
L 263.862678 170.407786 
L 265.050671 173.97834 
L 266.238663 169.440853 
L 267.426655 169.031681 
L 268.614648 162.712244 
L 269.80264 165.85921 
L 270.990632 173.324108 
L 272.178625 175.430957 
L 273.366617 168.711218 
L 274.554609 169.929864 
L 275.742602 165.865864 
L 276.930594 169.54176 
L 278.118586 167.157695 
L 279.306579 162.166681 
L 280.494571 163.165771 
L 281.682563 170.371193 
L 282.870556 164.57625 
L 284.058548 164.917782 
L 285.24654 164.70377 
L 286.434533 166.348221 
L 287.622525 169.063838 
L 288.810517 173.182173 
L 289.99851 166.215157 
L 291.186502 163.721313 
L 292.374494 166.492374 
L 293.562487 164.578468 
L 294.750479 160.950253 
L 295.938471 164.608408 
L 297.126464 162.694502 
L 298.314456 162.772123 
L 299.502448 163.879881 
L 300.690441 162.704482 
L 301.878433 179.501611 
L 303.066425 175.081664 
L 304.254418 177.410286 
L 305.44241 176.734986 
L 306.630402 183.126499 
L 307.818395 176.410087 
L 309.006387 178.196473 
L 310.194379 188.799467 
L 312.570364 184.012485 
L 313.758356 183.696457 
L 314.946349 182.130736 
L 316.134341 179.139011 
L 317.322333 178.603428 
L 318.510326 178.692137 
L 319.698318 181.26471 
L 320.88631 179.798787 
L 322.074303 182.186179 
L 323.262295 179.964008 
L 324.450287 178.310687 
L 325.63828 176.39789 
L 326.826272 176.472184 
L 328.014264 172.125422 
L 329.202257 170.927845 
L 330.390249 170.168271 
L 331.578241 167.864043 
L 332.766234 167.970495 
L 333.954226 168.857589 
L 335.142218 170.564136 
L 336.330211 168.155676 
L 337.518203 170.04186 
L 338.706195 167.380577 
L 339.894188 163.49954 
L 341.08218 167.400537 
L 342.270172 169.282285 
L 343.458165 171.525525 
L 344.646157 170.04186 
L 345.834149 172.315039 
L 347.022142 171.658589 
L 348.210134 167.013542 
L 349.398126 166.792877 
L 350.586119 164.671613 
L 351.774111 165.941267 
L 352.962103 166.636527 
L 354.150096 164.609516 
L 356.52608 157.918608 
L 357.714073 158.590582 
L 358.902065 160.304892 
L 360.090057 157.843205 
L 361.27805 158.000665 
L 362.466042 157.826572 
L 363.654034 173.484894 
L 364.842027 170.377847 
L 366.030019 170.928954 
L 367.218011 163.8322 
L 368.406004 158.721429 
L 369.593996 146.231142 
L 370.781989 145.979429 
L 371.969981 141.543958 
L 373.157973 143.661895 
L 374.345966 140.792146 
L 375.533958 132.952451 
L 376.72195 136.552944 
L 377.909943 136.720383 
L 379.097935 138.882675 
L 380.285927 139.143259 
L 382.661912 136.23359 
L 383.849904 138.130863 
L 385.037897 134.83309 
L 386.225889 134.337426 
L 387.413881 134.945086 
L 388.601874 132.950233 
L 389.789866 132.49227 
L 390.977858 137.006471 
L 392.165851 132.229469 
L 393.353843 135.334299 
L 394.541835 135.436314 
L 395.729828 136.554053 
L 396.91782 133.372711 
L 398.105812 133.937125 
L 399.293805 131.659511 
L 400.481797 121.029904 
L 401.669789 106.887405 
L 402.857782 106.615732 
L 404.045774 103.621789 
L 405.233766 105.72642 
L 406.421759 102.954251 
L 408.797743 76.675194 
L 409.985736 81.109556 
L 411.173728 78.338495 
L 412.36172 86.113876 
L 413.549713 84.247652 
L 414.737705 84.77769 
L 415.925697 79.070348 
L 417.11369 77.117632 
L 418.301682 76.131849 
L 419.489674 79.004925 
L 420.677667 76.024288 
L 421.865659 69.468662 
L 423.053651 61.14661 
L 424.241644 58.321214 
L 425.429636 58.701556 
L 426.617628 66.916049 
L 427.805621 64.255875 
L 428.993613 58.24692 
L 430.181605 56.16114 
L 431.369598 67.039133 
L 432.55759 67.297499 
L 433.745582 72.239723 
L 434.933575 77.908255 
L 436.121567 80.001797 
L 437.309559 84.16116 
L 438.497552 81.775985 
L 439.685544 82.220641 
L 440.873536 84.218821 
L 442.061529 93.862644 
L 443.249521 86.877886 
L 444.437513 93.30821 
L 445.625506 96.979671 
L 446.813498 86.655004 
L 448.00149 85.213476 
L 449.189483 72.68327 
L 450.377475 76.441223 
L 451.565467 86.971031 
L 452.75346 79.446254 
L 453.941452 80.262381 
L 455.129444 84.381825 
L 456.317437 80.002906 
L 457.505429 80.001797 
L 458.693421 82.856023 
L 459.881414 76.009873 
L 461.069406 78.830833 
L 462.257398 77.784061 
L 463.445391 75.011892 
L 464.633383 73.216635 
L 465.821375 76.964608 
L 467.009368 79.224481 
L 468.19736 82.21177 
L 469.385352 81.110665 
L 470.573345 82.034352 
L 472.949329 81.339092 
L 474.137322 79.696858 
L 475.325314 75.234774 
L 476.513306 88.818405 
L 477.701299 109.941227 
L 478.889291 112.979524 
L 480.077283 111.937189 
L 481.265276 116.296148 
L 482.453268 116.594433 
L 483.64126 119.478598 
L 484.829253 117.837474 
L 486.017245 112.157853 
L 487.205237 113.319947 
L 488.39323 114.670548 
L 489.581222 114.377807 
L 490.769214 108.514114 
L 491.957207 109.618546 
L 493.145199 109.336894 
L 494.333191 113.933151 
L 495.521184 123.5803 
L 496.709176 119.355514 
L 497.897168 124.268907 
L 499.085161 88.37264 
L 500.273153 83.882834 
L 501.461145 84.881924 
L 502.649138 74.193548 
L 503.83713 81.701691 
L 505.025122 79.55825 
L 506.213115 77.149789 
L 507.401107 76.675194 
L 508.589099 84.144527 
L 509.777092 86.363371 
L 510.965084 85.264483 
L 512.153076 85.144726 
L 513.341069 87.064176 
L 514.529061 81.110665 
L 515.717053 85.097044 
L 516.905046 82.885962 
L 518.093038 82.773966 
L 519.28103 82.419129 
L 520.469023 83.882834 
L 521.657015 84.880815 
L 522.845007 84.438377 
L 524.033 84.865291 
L 525.220992 87.185042 
L 526.408984 88.49018 
L 527.596977 92.482104 
L 528.784969 84.497147 
L 529.972961 84.325272 
L 532.348946 82.761769 
L 533.536938 86.201477 
L 534.724931 85.655914 
L 535.912923 83.756423 
L 537.100915 79.183453 
L 538.288908 76.467835 
L 539.4769 75.469854 
L 540.664892 77.273982 
L 541.852885 79.46067 
L 543.040877 83.097756 
L 544.228869 81.240402 
L 545.416862 81.740502 
L 546.604854 84.769928 
L 547.792846 86.837967 
L 548.980839 86.6295 
L 550.168831 88.204092 
L 551.356824 86.552988 
L 552.544816 81.172761 
L 553.732808 82.890398 
L 554.920801 80.640505 
L 556.108793 79.865406 
L 557.296785 84.695634 
L 558.484778 83.184248 
L 559.67277 81.110665 
L 560.860762 80.964294 
L 562.048755 82.959147 
L 564.424739 83.3284 
L 565.612732 80.408751 
L 566.800724 86.655004 
L 567.988716 81.177197 
L 569.176709 82.99574 
L 570.364701 84.140092 
L 571.552693 84.992811 
L 572.740686 84.715594 
L 573.928678 88.92042 
L 575.11667 87.763871 
L 576.304663 87.077482 
L 577.492655 87.222744 
L 578.680647 88.873848 
L 579.86864 87.205002 
L 581.056632 88.873848 
L 582.244624 91.646017 
L 583.432617 84.805412 
L 584.620609 91.644909 
L 585.808601 91.756904 
L 586.996594 115.216111 
L 588.184586 109.797074 
L 589.372578 92.722728 
L 590.560571 88.190785 
L 591.748563 91.919908 
L 592.936555 86.321234 
L 594.124548 85.546136 
L 595.31254 90.52717 
L 596.500532 92.200451 
L 597.688525 91.534022 
L 598.876517 91.909928 
L 600.064509 91.792388 
L 601.252502 91.131503 
L 602.440494 90.814367 
L 603.628486 92.174947 
L 604.816479 102.17139 
L 606.004471 103.872393 
L 607.192463 110.768442 
L 608.380456 107.115832 
L 609.568448 126.905795 
L 610.75644 134.892969 
L 611.944433 134.335209 
L 613.132425 132.008804 
L 614.320417 127.683111 
L 615.50841 134.889643 
L 616.696402 133.22745 
L 617.884394 132.117473 
L 619.072387 139.016848 
L 620.260379 136.949919 
L 621.448371 138.105359 
L 622.636364 134.63793 
L 622.636364 134.63793 
" style="fill:none;stroke:#ff0000;stroke-linecap:square;stroke-width:1.5;"/>
   </g>
   <g id="patch_3">
    <path d="M 90 320.4 
L 90 43.2 
" style="fill:none;stroke:#000000;stroke-linecap:square;stroke-linejoin:miter;stroke-width:0.8;"/>
   </g>
   <g id="patch_4">
    <path d="M 648 320.4 
L 648 43.2 
" style="fill:none;stroke:#000000;stroke-linecap:square;stroke-linejoin:miter;stroke-width:0.8;"/>
   </g>
   <g id="patch_5">
    <path d="M 90 320.4 
L 648 320.4 
" style="fill:none;stroke:#000000;stroke-linecap:square;stroke-linejoin:miter;stroke-width:0.8;"/>
   </g>
   <g id="patch_6">
    <path d="M 90 43.2 
L 648 43.2 
" style="fill:none;stroke:#000000;stroke-linecap:square;stroke-linejoin:miter;stroke-width:0.8;"/>
   </g>
   <g id="text_13">
    <!-- Bitcoin Price Over Time -->
    <defs>
     <path d="M 19.671875 34.8125 
L 19.671875 8.109375 
L 35.5 8.109375 
Q 43.453125 8.109375 47.28125 11.40625 
Q 51.125 14.703125 51.125 21.484375 
Q 51.125 28.328125 47.28125 31.5625 
Q 43.453125 34.8125 35.5 34.8125 
z
M 19.671875 64.796875 
L 19.671875 42.828125 
L 34.28125 42.828125 
Q 41.5 42.828125 45.03125 45.53125 
Q 48.578125 48.25 48.578125 53.8125 
Q 48.578125 59.328125 45.03125 62.0625 
Q 41.5 64.796875 34.28125 64.796875 
z
M 9.8125 72.90625 
L 35.015625 72.90625 
Q 46.296875 72.90625 52.390625 68.21875 
Q 58.5 63.53125 58.5 54.890625 
Q 58.5 48.1875 55.375 44.234375 
Q 52.25 40.28125 46.1875 39.3125 
Q 53.46875 37.75 57.5 32.78125 
Q 61.53125 27.828125 61.53125 20.40625 
Q 61.53125 10.640625 54.890625 5.3125 
Q 48.25 0 35.984375 0 
L 9.8125 0 
z
" id="DejaVuSans-42"/>
     <path d="M 18.3125 70.21875 
L 18.3125 54.6875 
L 36.8125 54.6875 
L 36.8125 47.703125 
L 18.3125 47.703125 
L 18.3125 18.015625 
Q 18.3125 11.328125 20.140625 9.421875 
Q 21.96875 7.515625 27.59375 7.515625 
L 36.8125 7.515625 
L 36.8125 0 
L 27.59375 0 
Q 17.1875 0 13.234375 3.875 
Q 9.28125 7.765625 9.28125 18.015625 
L 9.28125 47.703125 
L 2.6875 47.703125 
L 2.6875 54.6875 
L 9.28125 54.6875 
L 9.28125 70.21875 
z
" id="DejaVuSans-74"/>
     <path d="M 30.609375 48.390625 
Q 23.390625 48.390625 19.1875 42.75 
Q 14.984375 37.109375 14.984375 27.296875 
Q 14.984375 17.484375 19.15625 11.84375 
Q 23.34375 6.203125 30.609375 6.203125 
Q 37.796875 6.203125 41.984375 11.859375 
Q 46.1875 17.53125 46.1875 27.296875 
Q 46.1875 37.015625 41.984375 42.703125 
Q 37.796875 48.390625 30.609375 48.390625 
z
M 30.609375 56 
Q 42.328125 56 49.015625 48.375 
Q 55.71875 40.765625 55.71875 27.296875 
Q 55.71875 13.875 49.015625 6.21875 
Q 42.328125 -1.421875 30.609375 -1.421875 
Q 18.84375 -1.421875 12.171875 6.21875 
Q 5.515625 13.875 5.515625 27.296875 
Q 5.515625 40.765625 12.171875 48.375 
Q 18.84375 56 30.609375 56 
z
" id="DejaVuSans-6f"/>
     <path d="M 39.40625 66.21875 
Q 28.65625 66.21875 22.328125 58.203125 
Q 16.015625 50.203125 16.015625 36.375 
Q 16.015625 22.609375 22.328125 14.59375 
Q 28.65625 6.59375 39.40625 6.59375 
Q 50.140625 6.59375 56.421875 14.59375 
Q 62.703125 22.609375 62.703125 36.375 
Q 62.703125 50.203125 56.421875 58.203125 
Q 50.140625 66.21875 39.40625 66.21875 
z
M 39.40625 74.21875 
Q 54.734375 74.21875 63.90625 63.9375 
Q 73.09375 53.65625 73.09375 36.375 
Q 73.09375 19.140625 63.90625 8.859375 
Q 54.734375 -1.421875 39.40625 -1.421875 
Q 24.03125 -1.421875 14.8125 8.828125 
Q 5.609375 19.09375 5.609375 36.375 
Q 5.609375 53.65625 14.8125 63.9375 
Q 24.03125 74.21875 39.40625 74.21875 
z
" id="DejaVuSans-4f"/>
     <path d="M 2.984375 54.6875 
L 12.5 54.6875 
L 29.59375 8.796875 
L 46.6875 54.6875 
L 56.203125 54.6875 
L 35.6875 0 
L 23.484375 0 
z
" id="DejaVuSans-76"/>
    </defs>
    <g transform="translate(298.665 37.2)scale(0.12 -0.12)">
     <use xlink:href="#DejaVuSans-42"/>
     <use x="68.603516" xlink:href="#DejaVuSans-69"/>
     <use x="96.386719" xlink:href="#DejaVuSans-74"/>
     <use x="135.595703" xlink:href="#DejaVuSans-63"/>
     <use x="190.576172" xlink:href="#DejaVuSans-6f"/>
     <use x="251.757812" xlink:href="#DejaVuSans-69"/>
     <use x="279.541016" xlink:href="#DejaVuSans-6e"/>
     <use x="342.919922" xlink:href="#DejaVuSans-20"/>
     <use x="374.707031" xlink:href="#DejaVuSans-50"/>
     <use x="434.994141" xlink:href="#DejaVuSans-72"/>
     <use x="476.107422" xlink:href="#DejaVuSans-69"/>
     <use x="503.890625" xlink:href="#DejaVuSans-63"/>
     <use x="558.871094" xlink:href="#DejaVuSans-65"/>
     <use x="620.394531" xlink:href="#DejaVuSans-20"/>
     <use x="652.181641" xlink:href="#DejaVuSans-4f"/>
     <use x="730.892578" xlink:href="#DejaVuSans-76"/>
     <use x="790.072266" xlink:href="#DejaVuSans-65"/>
     <use x="851.595703" xlink:href="#DejaVuSans-72"/>
     <use x="892.708984" xlink:href="#DejaVuSans-20"/>
     <use x="924.496094" xlink:href="#DejaVuSans-54"/>
     <use x="985.533203" xlink:href="#DejaVuSans-69"/>
     <use x="1013.316406" xlink:href="#DejaVuSans-6d"/>
     <use x="1110.728516" xlink:href="#DejaVuSans-65"/>
    </g>
   </g>
   <g id="legend_1">
    <g id="patch_7">
     <path d="M 97 80.55625 
L 204.082812 80.55625 
Q 206.082812 80.55625 206.082812 78.55625 
L 206.082812 50.2 
Q 206.082812 48.2 204.082812 48.2 
L 97 48.2 
Q 95 48.2 95 50.2 
L 95 78.55625 
Q 95 80.55625 97 80.55625 
z
" style="fill:#ffffff;opacity:0.8;stroke:#cccccc;stroke-linejoin:miter;"/>
    </g>
    <g id="line2d_13">
     <path d="M 99 56.298437 
L 119 56.298437 
" style="fill:none;stroke:#008000;stroke-linecap:square;stroke-width:1.5;"/>
    </g>
    <g id="line2d_14"/>
    <g id="text_14">
     <!-- Predicted Price -->
     <g transform="translate(127 59.798437)scale(0.1 -0.1)">
      <use xlink:href="#DejaVuSans-50"/>
      <use x="60.287109" xlink:href="#DejaVuSans-72"/>
      <use x="101.369141" xlink:href="#DejaVuSans-65"/>
      <use x="162.892578" xlink:href="#DejaVuSans-64"/>
      <use x="226.369141" xlink:href="#DejaVuSans-69"/>
      <use x="254.152344" xlink:href="#DejaVuSans-63"/>
      <use x="309.132812" xlink:href="#DejaVuSans-74"/>
      <use x="348.341797" xlink:href="#DejaVuSans-65"/>
      <use x="409.865234" xlink:href="#DejaVuSans-64"/>
      <use x="473.341797" xlink:href="#DejaVuSans-20"/>
      <use x="505.128906" xlink:href="#DejaVuSans-50"/>
      <use x="565.416016" xlink:href="#DejaVuSans-72"/>
      <use x="606.529297" xlink:href="#DejaVuSans-69"/>
      <use x="634.3125" xlink:href="#DejaVuSans-63"/>
      <use x="689.292969" xlink:href="#DejaVuSans-65"/>
     </g>
    </g>
    <g id="line2d_15">
     <path d="M 99 70.976562 
L 119 70.976562 
" style="fill:none;stroke:#ff0000;stroke-linecap:square;stroke-width:1.5;"/>
    </g>
    <g id="line2d_16"/>
    <g id="text_15">
     <!-- Real Price -->
     <defs>
      <path d="M 44.390625 34.1875 
Q 47.5625 33.109375 50.5625 29.59375 
Q 53.5625 26.078125 56.59375 19.921875 
L 66.609375 0 
L 56 0 
L 46.6875 18.703125 
Q 43.0625 26.03125 39.671875 28.421875 
Q 36.28125 30.8125 30.421875 30.8125 
L 19.671875 30.8125 
L 19.671875 0 
L 9.8125 0 
L 9.8125 72.90625 
L 32.078125 72.90625 
Q 44.578125 72.90625 50.734375 67.671875 
Q 56.890625 62.453125 56.890625 51.90625 
Q 56.890625 45.015625 53.6875 40.46875 
Q 50.484375 35.9375 44.390625 34.1875 
z
M 19.671875 64.796875 
L 19.671875 38.921875 
L 32.078125 38.921875 
Q 39.203125 38.921875 42.84375 42.21875 
Q 46.484375 45.515625 46.484375 51.90625 
Q 46.484375 58.296875 42.84375 61.546875 
Q 39.203125 64.796875 32.078125 64.796875 
z
" id="DejaVuSans-52"/>
     </defs>
     <g transform="translate(127 74.476562)scale(0.1 -0.1)">
      <use xlink:href="#DejaVuSans-52"/>
      <use x="69.419922" xlink:href="#DejaVuSans-65"/>
      <use x="130.943359" xlink:href="#DejaVuSans-61"/>
      <use x="192.222656" xlink:href="#DejaVuSans-6c"/>
      <use x="220.005859" xlink:href="#DejaVuSans-20"/>
      <use x="251.792969" xlink:href="#DejaVuSans-50"/>
      <use x="312.080078" xlink:href="#DejaVuSans-72"/>
      <use x="353.193359" xlink:href="#DejaVuSans-69"/>
      <use x="380.976562" xlink:href="#DejaVuSans-63"/>
      <use x="435.957031" xlink:href="#DejaVuSans-65"/>
     </g>
    </g>
   </g>
  </g>
 </g>
 <defs>
  <clipPath id="p21c9155025">
   <rect height="277.2" width="558" x="90" y="43.2"/>
  </clipPath>
 </defs>
</svg>
