<?xml version="1.0" encoding="utf-8" standalone="no"?>
<!DOCTYPE svg PUBLIC "-//W3C//DTD SVG 1.1//EN"
  "http://www.w3.org/Graphics/SVG/1.1/DTD/svg11.dtd">
<!-- Created with matplotlib (http://matplotlib.org/) -->
<svg height="360pt" version="1.1" viewBox="0 0 720 360" width="720pt" xmlns="http://www.w3.org/2000/svg" xmlns:xlink="http://www.w3.org/1999/xlink">
 <defs>
  <style type="text/css">
*{stroke-linecap:butt;stroke-linejoin:round;}
  </style>
 </defs>
 <g id="figure_1">
  <g id="patch_1">
   <path d="M 0 360 
L 720 360 
L 720 0 
L 0 0 
z
" style="fill:#ffffff;"/>
  </g>
  <g id="axes_1">
   <g id="patch_2">
    <path d="M 90 320.4 
L 648 320.4 
L 648 43.2 
L 90 43.2 
z
" style="fill:#ffffff;"/>
   </g>
   <g id="matplotlib.axis_1">
    <g id="xtick_1">
     <g id="line2d_1">
      <defs>
       <path d="M 0 0 
L 0 3.5 
" id="m60642cc3cc" style="stroke:#000000;stroke-width:0.8;"/>
      </defs>
      <g>
       <use style="stroke:#000000;stroke-width:0.8;" x="115.363636" xlink:href="#m60642cc3cc" y="320.4"/>
      </g>
     </g>
     <g id="text_1">
      <!-- 0 -->
      <defs>
       <path d="M 31.78125 66.40625 
Q 24.171875 66.40625 20.328125 58.90625 
Q 16.5 51.421875 16.5 36.375 
Q 16.5 21.390625 20.328125 13.890625 
Q 24.171875 6.390625 31.78125 6.390625 
Q 39.453125 6.390625 43.28125 13.890625 
Q 47.125 21.390625 47.125 36.375 
Q 47.125 51.421875 43.28125 58.90625 
Q 39.453125 66.40625 31.78125 66.40625 
z
M 31.78125 74.21875 
Q 44.046875 74.21875 50.515625 64.515625 
Q 56.984375 54.828125 56.984375 36.375 
Q 56.984375 17.96875 50.515625 8.265625 
Q 44.046875 -1.421875 31.78125 -1.421875 
Q 19.53125 -1.421875 13.0625 8.265625 
Q 6.59375 17.96875 6.59375 36.375 
Q 6.59375 54.828125 13.0625 64.515625 
Q 19.53125 74.21875 31.78125 74.21875 
z
" id="DejaVuSans-30"/>
      </defs>
      <g transform="translate(112.182386 334.998438)scale(0.1 -0.1)">
       <use xlink:href="#DejaVuSans-30"/>
      </g>
     </g>
    </g>
    <g id="xtick_2">
     <g id="line2d_2">
      <g>
       <use style="stroke:#000000;stroke-width:0.8;" x="238.189963" xlink:href="#m60642cc3cc" y="320.4"/>
      </g>
     </g>
     <g id="text_2">
      <!-- 100 -->
      <defs>
       <path d="M 12.40625 8.296875 
L 28.515625 8.296875 
L 28.515625 63.921875 
L 10.984375 60.40625 
L 10.984375 69.390625 
L 28.421875 72.90625 
L 38.28125 72.90625 
L 38.28125 8.296875 
L 54.390625 8.296875 
L 54.390625 0 
L 12.40625 0 
z
" id="DejaVuSans-31"/>
      </defs>
      <g transform="translate(228.646213 334.998438)scale(0.1 -0.1)">
       <use xlink:href="#DejaVuSans-31"/>
       <use x="63.623047" xlink:href="#DejaVuSans-30"/>
       <use x="127.246094" xlink:href="#DejaVuSans-30"/>
      </g>
     </g>
    </g>
    <g id="xtick_3">
     <g id="line2d_3">
      <g>
       <use style="stroke:#000000;stroke-width:0.8;" x="361.016289" xlink:href="#m60642cc3cc" y="320.4"/>
      </g>
     </g>
     <g id="text_3">
      <!-- 200 -->
      <defs>
       <path d="M 19.1875 8.296875 
L 53.609375 8.296875 
L 53.609375 0 
L 7.328125 0 
L 7.328125 8.296875 
Q 12.9375 14.109375 22.625 23.890625 
Q 32.328125 33.6875 34.8125 36.53125 
Q 39.546875 41.84375 41.421875 45.53125 
Q 43.3125 49.21875 43.3125 52.78125 
Q 43.3125 58.59375 39.234375 62.25 
Q 35.15625 65.921875 28.609375 65.921875 
Q 23.96875 65.921875 18.8125 64.3125 
Q 13.671875 62.703125 7.8125 59.421875 
L 7.8125 69.390625 
Q 13.765625 71.78125 18.9375 73 
Q 24.125 74.21875 28.421875 74.21875 
Q 39.75 74.21875 46.484375 68.546875 
Q 53.21875 62.890625 53.21875 53.421875 
Q 53.21875 48.921875 51.53125 44.890625 
Q 49.859375 40.875 45.40625 35.40625 
Q 44.1875 33.984375 37.640625 27.21875 
Q 31.109375 20.453125 19.1875 8.296875 
z
" id="DejaVuSans-32"/>
      </defs>
      <g transform="translate(351.472539 334.998438)scale(0.1 -0.1)">
       <use xlink:href="#DejaVuSans-32"/>
       <use x="63.623047" xlink:href="#DejaVuSans-30"/>
       <use x="127.246094" xlink:href="#DejaVuSans-30"/>
      </g>
     </g>
    </g>
    <g id="xtick_4">
     <g id="line2d_4">
      <g>
       <use style="stroke:#000000;stroke-width:0.8;" x="483.842615" xlink:href="#m60642cc3cc" y="320.4"/>
      </g>
     </g>
     <g id="text_4">
      <!-- 300 -->
      <defs>
       <path d="M 40.578125 39.3125 
Q 47.65625 37.796875 51.625 33 
Q 55.609375 28.21875 55.609375 21.1875 
Q 55.609375 10.40625 48.1875 4.484375 
Q 40.765625 -1.421875 27.09375 -1.421875 
Q 22.515625 -1.421875 17.65625 -0.515625 
Q 12.796875 0.390625 7.625 2.203125 
L 7.625 11.71875 
Q 11.71875 9.328125 16.59375 8.109375 
Q 21.484375 6.890625 26.8125 6.890625 
Q 36.078125 6.890625 40.9375 10.546875 
Q 45.796875 14.203125 45.796875 21.1875 
Q 45.796875 27.640625 41.28125 31.265625 
Q 36.765625 34.90625 28.71875 34.90625 
L 20.21875 34.90625 
L 20.21875 43.015625 
L 29.109375 43.015625 
Q 36.375 43.015625 40.234375 45.921875 
Q 44.09375 48.828125 44.09375 54.296875 
Q 44.09375 59.90625 40.109375 62.90625 
Q 36.140625 65.921875 28.71875 65.921875 
Q 24.65625 65.921875 20.015625 65.03125 
Q 15.375 64.15625 9.8125 62.3125 
L 9.8125 71.09375 
Q 15.4375 72.65625 20.34375 73.4375 
Q 25.25 74.21875 29.59375 74.21875 
Q 40.828125 74.21875 47.359375 69.109375 
Q 53.90625 64.015625 53.90625 55.328125 
Q 53.90625 49.265625 50.4375 45.09375 
Q 46.96875 40.921875 40.578125 39.3125 
z
" id="DejaVuSans-33"/>
      </defs>
      <g transform="translate(474.298865 334.998438)scale(0.1 -0.1)">
       <use xlink:href="#DejaVuSans-33"/>
       <use x="63.623047" xlink:href="#DejaVuSans-30"/>
       <use x="127.246094" xlink:href="#DejaVuSans-30"/>
      </g>
     </g>
    </g>
    <g id="xtick_5">
     <g id="line2d_5">
      <g>
       <use style="stroke:#000000;stroke-width:0.8;" x="606.668941" xlink:href="#m60642cc3cc" y="320.4"/>
      </g>
     </g>
     <g id="text_5">
      <!-- 400 -->
      <defs>
       <path d="M 37.796875 64.3125 
L 12.890625 25.390625 
L 37.796875 25.390625 
z
M 35.203125 72.90625 
L 47.609375 72.90625 
L 47.609375 25.390625 
L 58.015625 25.390625 
L 58.015625 17.1875 
L 47.609375 17.1875 
L 47.609375 0 
L 37.796875 0 
L 37.796875 17.1875 
L 4.890625 17.1875 
L 4.890625 26.703125 
z
" id="DejaVuSans-34"/>
      </defs>
      <g transform="translate(597.125191 334.998438)scale(0.1 -0.1)">
       <use xlink:href="#DejaVuSans-34"/>
       <use x="63.623047" xlink:href="#DejaVuSans-30"/>
       <use x="127.246094" xlink:href="#DejaVuSans-30"/>
      </g>
     </g>
    </g>
    <g id="text_6">
     <!-- Time (60m Candles) -->
     <defs>
      <path d="M -0.296875 72.90625 
L 61.375 72.90625 
L 61.375 64.59375 
L 35.5 64.59375 
L 35.5 0 
L 25.59375 0 
L 25.59375 64.59375 
L -0.296875 64.59375 
z
" id="DejaVuSans-54"/>
      <path d="M 9.421875 54.6875 
L 18.40625 54.6875 
L 18.40625 0 
L 9.421875 0 
z
M 9.421875 75.984375 
L 18.40625 75.984375 
L 18.40625 64.59375 
L 9.421875 64.59375 
z
" id="DejaVuSans-69"/>
      <path d="M 52 44.1875 
Q 55.375 50.25 60.0625 53.125 
Q 64.75 56 71.09375 56 
Q 79.640625 56 84.28125 50.015625 
Q 88.921875 44.046875 88.921875 33.015625 
L 88.921875 0 
L 79.890625 0 
L 79.890625 32.71875 
Q 79.890625 40.578125 77.09375 44.375 
Q 74.3125 48.1875 68.609375 48.1875 
Q 61.625 48.1875 57.5625 43.546875 
Q 53.515625 38.921875 53.515625 30.90625 
L 53.515625 0 
L 44.484375 0 
L 44.484375 32.71875 
Q 44.484375 40.625 41.703125 44.40625 
Q 38.921875 48.1875 33.109375 48.1875 
Q 26.21875 48.1875 22.15625 43.53125 
Q 18.109375 38.875 18.109375 30.90625 
L 18.109375 0 
L 9.078125 0 
L 9.078125 54.6875 
L 18.109375 54.6875 
L 18.109375 46.1875 
Q 21.1875 51.21875 25.484375 53.609375 
Q 29.78125 56 35.6875 56 
Q 41.65625 56 45.828125 52.96875 
Q 50 49.953125 52 44.1875 
z
" id="DejaVuSans-6d"/>
      <path d="M 56.203125 29.59375 
L 56.203125 25.203125 
L 14.890625 25.203125 
Q 15.484375 15.921875 20.484375 11.0625 
Q 25.484375 6.203125 34.421875 6.203125 
Q 39.59375 6.203125 44.453125 7.46875 
Q 49.3125 8.734375 54.109375 11.28125 
L 54.109375 2.78125 
Q 49.265625 0.734375 44.1875 -0.34375 
Q 39.109375 -1.421875 33.890625 -1.421875 
Q 20.796875 -1.421875 13.15625 6.1875 
Q 5.515625 13.8125 5.515625 26.8125 
Q 5.515625 40.234375 12.765625 48.109375 
Q 20.015625 56 32.328125 56 
Q 43.359375 56 49.78125 48.890625 
Q 56.203125 41.796875 56.203125 29.59375 
z
M 47.21875 32.234375 
Q 47.125 39.59375 43.09375 43.984375 
Q 39.0625 48.390625 32.421875 48.390625 
Q 24.90625 48.390625 20.390625 44.140625 
Q 15.875 39.890625 15.1875 32.171875 
z
" id="DejaVuSans-65"/>
      <path id="DejaVuSans-20"/>
      <path d="M 31 75.875 
Q 24.46875 64.65625 21.28125 53.65625 
Q 18.109375 42.671875 18.109375 31.390625 
Q 18.109375 20.125 21.3125 9.0625 
Q 24.515625 -2 31 -13.1875 
L 23.1875 -13.1875 
Q 15.875 -1.703125 12.234375 9.375 
Q 8.59375 20.453125 8.59375 31.390625 
Q 8.59375 42.28125 12.203125 53.3125 
Q 15.828125 64.359375 23.1875 75.875 
z
" id="DejaVuSans-28"/>
      <path d="M 33.015625 40.375 
Q 26.375 40.375 22.484375 35.828125 
Q 18.609375 31.296875 18.609375 23.390625 
Q 18.609375 15.53125 22.484375 10.953125 
Q 26.375 6.390625 33.015625 6.390625 
Q 39.65625 6.390625 43.53125 10.953125 
Q 47.40625 15.53125 47.40625 23.390625 
Q 47.40625 31.296875 43.53125 35.828125 
Q 39.65625 40.375 33.015625 40.375 
z
M 52.59375 71.296875 
L 52.59375 62.3125 
Q 48.875 64.0625 45.09375 64.984375 
Q 41.3125 65.921875 37.59375 65.921875 
Q 27.828125 65.921875 22.671875 59.328125 
Q 17.53125 52.734375 16.796875 39.40625 
Q 19.671875 43.65625 24.015625 45.921875 
Q 28.375 48.1875 33.59375 48.1875 
Q 44.578125 48.1875 50.953125 41.515625 
Q 57.328125 34.859375 57.328125 23.390625 
Q 57.328125 12.15625 50.6875 5.359375 
Q 44.046875 -1.421875 33.015625 -1.421875 
Q 20.359375 -1.421875 13.671875 8.265625 
Q 6.984375 17.96875 6.984375 36.375 
Q 6.984375 53.65625 15.1875 63.9375 
Q 23.390625 74.21875 37.203125 74.21875 
Q 40.921875 74.21875 44.703125 73.484375 
Q 48.484375 72.75 52.59375 71.296875 
z
" id="DejaVuSans-36"/>
      <path d="M 64.40625 67.28125 
L 64.40625 56.890625 
Q 59.421875 61.53125 53.78125 63.8125 
Q 48.140625 66.109375 41.796875 66.109375 
Q 29.296875 66.109375 22.65625 58.46875 
Q 16.015625 50.828125 16.015625 36.375 
Q 16.015625 21.96875 22.65625 14.328125 
Q 29.296875 6.6875 41.796875 6.6875 
Q 48.140625 6.6875 53.78125 8.984375 
Q 59.421875 11.28125 64.40625 15.921875 
L 64.40625 5.609375 
Q 59.234375 2.09375 53.4375 0.328125 
Q 47.65625 -1.421875 41.21875 -1.421875 
Q 24.65625 -1.421875 15.125 8.703125 
Q 5.609375 18.84375 5.609375 36.375 
Q 5.609375 53.953125 15.125 64.078125 
Q 24.65625 74.21875 41.21875 74.21875 
Q 47.75 74.21875 53.53125 72.484375 
Q 59.328125 70.75 64.40625 67.28125 
z
" id="DejaVuSans-43"/>
      <path d="M 34.28125 27.484375 
Q 23.390625 27.484375 19.1875 25 
Q 14.984375 22.515625 14.984375 16.5 
Q 14.984375 11.71875 18.140625 8.90625 
Q 21.296875 6.109375 26.703125 6.109375 
Q 34.1875 6.109375 38.703125 11.40625 
Q 43.21875 16.703125 43.21875 25.484375 
L 43.21875 27.484375 
z
M 52.203125 31.203125 
L 52.203125 0 
L 43.21875 0 
L 43.21875 8.296875 
Q 40.140625 3.328125 35.546875 0.953125 
Q 30.953125 -1.421875 24.3125 -1.421875 
Q 15.921875 -1.421875 10.953125 3.296875 
Q 6 8.015625 6 15.921875 
Q 6 25.140625 12.171875 29.828125 
Q 18.359375 34.515625 30.609375 34.515625 
L 43.21875 34.515625 
L 43.21875 35.40625 
Q 43.21875 41.609375 39.140625 45 
Q 35.0625 48.390625 27.6875 48.390625 
Q 23 48.390625 18.546875 47.265625 
Q 14.109375 46.140625 10.015625 43.890625 
L 10.015625 52.203125 
Q 14.9375 54.109375 19.578125 55.046875 
Q 24.21875 56 28.609375 56 
Q 40.484375 56 46.34375 49.84375 
Q 52.203125 43.703125 52.203125 31.203125 
z
" id="DejaVuSans-61"/>
      <path d="M 54.890625 33.015625 
L 54.890625 0 
L 45.90625 0 
L 45.90625 32.71875 
Q 45.90625 40.484375 42.875 44.328125 
Q 39.84375 48.1875 33.796875 48.1875 
Q 26.515625 48.1875 22.3125 43.546875 
Q 18.109375 38.921875 18.109375 30.90625 
L 18.109375 0 
L 9.078125 0 
L 9.078125 54.6875 
L 18.109375 54.6875 
L 18.109375 46.1875 
Q 21.34375 51.125 25.703125 53.5625 
Q 30.078125 56 35.796875 56 
Q 45.21875 56 50.046875 50.171875 
Q 54.890625 44.34375 54.890625 33.015625 
z
" id="DejaVuSans-6e"/>
      <path d="M 45.40625 46.390625 
L 45.40625 75.984375 
L 54.390625 75.984375 
L 54.390625 0 
L 45.40625 0 
L 45.40625 8.203125 
Q 42.578125 3.328125 38.25 0.953125 
Q 33.9375 -1.421875 27.875 -1.421875 
Q 17.96875 -1.421875 11.734375 6.484375 
Q 5.515625 14.40625 5.515625 27.296875 
Q 5.515625 40.1875 11.734375 48.09375 
Q 17.96875 56 27.875 56 
Q 33.9375 56 38.25 53.625 
Q 42.578125 51.265625 45.40625 46.390625 
z
M 14.796875 27.296875 
Q 14.796875 17.390625 18.875 11.75 
Q 22.953125 6.109375 30.078125 6.109375 
Q 37.203125 6.109375 41.296875 11.75 
Q 45.40625 17.390625 45.40625 27.296875 
Q 45.40625 37.203125 41.296875 42.84375 
Q 37.203125 48.484375 30.078125 48.484375 
Q 22.953125 48.484375 18.875 42.84375 
Q 14.796875 37.203125 14.796875 27.296875 
z
" id="DejaVuSans-64"/>
      <path d="M 9.421875 75.984375 
L 18.40625 75.984375 
L 18.40625 0 
L 9.421875 0 
z
" id="DejaVuSans-6c"/>
      <path d="M 44.28125 53.078125 
L 44.28125 44.578125 
Q 40.484375 46.53125 36.375 47.5 
Q 32.28125 48.484375 27.875 48.484375 
Q 21.1875 48.484375 17.84375 46.4375 
Q 14.5 44.390625 14.5 40.28125 
Q 14.5 37.15625 16.890625 35.375 
Q 19.28125 33.59375 26.515625 31.984375 
L 29.59375 31.296875 
Q 39.15625 29.25 43.1875 25.515625 
Q 47.21875 21.78125 47.21875 15.09375 
Q 47.21875 7.46875 41.1875 3.015625 
Q 35.15625 -1.421875 24.609375 -1.421875 
Q 20.21875 -1.421875 15.453125 -0.5625 
Q 10.6875 0.296875 5.421875 2 
L 5.421875 11.28125 
Q 10.40625 8.6875 15.234375 7.390625 
Q 20.0625 6.109375 24.8125 6.109375 
Q 31.15625 6.109375 34.5625 8.28125 
Q 37.984375 10.453125 37.984375 14.40625 
Q 37.984375 18.0625 35.515625 20.015625 
Q 33.0625 21.96875 24.703125 23.78125 
L 21.578125 24.515625 
Q 13.234375 26.265625 9.515625 29.90625 
Q 5.8125 33.546875 5.8125 39.890625 
Q 5.8125 47.609375 11.28125 51.796875 
Q 16.75 56 26.8125 56 
Q 31.78125 56 36.171875 55.265625 
Q 40.578125 54.546875 44.28125 53.078125 
z
" id="DejaVuSans-73"/>
      <path d="M 8.015625 75.875 
L 15.828125 75.875 
Q 23.140625 64.359375 26.78125 53.3125 
Q 30.421875 42.28125 30.421875 31.390625 
Q 30.421875 20.453125 26.78125 9.375 
Q 23.140625 -1.703125 15.828125 -13.1875 
L 8.015625 -13.1875 
Q 14.5 -2 17.703125 9.0625 
Q 20.90625 20.125 20.90625 31.390625 
Q 20.90625 42.671875 17.703125 53.65625 
Q 14.5 64.65625 8.015625 75.875 
z
" id="DejaVuSans-29"/>
     </defs>
     <g transform="translate(318.33125 348.676562)scale(0.1 -0.1)">
      <use xlink:href="#DejaVuSans-54"/>
      <use x="61.037109" xlink:href="#DejaVuSans-69"/>
      <use x="88.820312" xlink:href="#DejaVuSans-6d"/>
      <use x="186.232422" xlink:href="#DejaVuSans-65"/>
      <use x="247.755859" xlink:href="#DejaVuSans-20"/>
      <use x="279.542969" xlink:href="#DejaVuSans-28"/>
      <use x="318.556641" xlink:href="#DejaVuSans-36"/>
      <use x="382.179688" xlink:href="#DejaVuSans-30"/>
      <use x="445.802734" xlink:href="#DejaVuSans-6d"/>
      <use x="543.214844" xlink:href="#DejaVuSans-20"/>
      <use x="575.001953" xlink:href="#DejaVuSans-43"/>
      <use x="644.826172" xlink:href="#DejaVuSans-61"/>
      <use x="706.105469" xlink:href="#DejaVuSans-6e"/>
      <use x="769.484375" xlink:href="#DejaVuSans-64"/>
      <use x="832.960938" xlink:href="#DejaVuSans-6c"/>
      <use x="860.744141" xlink:href="#DejaVuSans-65"/>
      <use x="922.267578" xlink:href="#DejaVuSans-73"/>
      <use x="974.367188" xlink:href="#DejaVuSans-29"/>
     </g>
    </g>
   </g>
   <g id="matplotlib.axis_2">
    <g id="ytick_1">
     <g id="line2d_6">
      <defs>
       <path d="M 0 0 
L -3.5 0 
" id="md633c77701" style="stroke:#000000;stroke-width:0.8;"/>
      </defs>
      <g>
       <use style="stroke:#000000;stroke-width:0.8;" x="90" xlink:href="#md633c77701" y="269.733938"/>
      </g>
     </g>
     <g id="text_7">
      <!-- 6500 -->
      <defs>
       <path d="M 10.796875 72.90625 
L 49.515625 72.90625 
L 49.515625 64.59375 
L 19.828125 64.59375 
L 19.828125 46.734375 
Q 21.96875 47.46875 24.109375 47.828125 
Q 26.265625 48.1875 28.421875 48.1875 
Q 40.625 48.1875 47.75 41.5 
Q 54.890625 34.8125 54.890625 23.390625 
Q 54.890625 11.625 47.5625 5.09375 
Q 40.234375 -1.421875 26.90625 -1.421875 
Q 22.3125 -1.421875 17.546875 -0.640625 
Q 12.796875 0.140625 7.71875 1.703125 
L 7.71875 11.625 
Q 12.109375 9.234375 16.796875 8.0625 
Q 21.484375 6.890625 26.703125 6.890625 
Q 35.15625 6.890625 40.078125 11.328125 
Q 45.015625 15.765625 45.015625 23.390625 
Q 45.015625 31 40.078125 35.4375 
Q 35.15625 39.890625 26.703125 39.890625 
Q 22.75 39.890625 18.8125 39.015625 
Q 14.890625 38.140625 10.796875 36.28125 
z
" id="DejaVuSans-35"/>
      </defs>
      <g transform="translate(57.55 273.533156)scale(0.1 -0.1)">
       <use xlink:href="#DejaVuSans-36"/>
       <use x="63.623047" xlink:href="#DejaVuSans-35"/>
       <use x="127.246094" xlink:href="#DejaVuSans-30"/>
       <use x="190.869141" xlink:href="#DejaVuSans-30"/>
      </g>
     </g>
    </g>
    <g id="ytick_2">
     <g id="line2d_7">
      <g>
       <use style="stroke:#000000;stroke-width:0.8;" x="90" xlink:href="#md633c77701" y="214.45385"/>
      </g>
     </g>
     <g id="text_8">
      <!-- 7000 -->
      <defs>
       <path d="M 8.203125 72.90625 
L 55.078125 72.90625 
L 55.078125 68.703125 
L 28.609375 0 
L 18.3125 0 
L 43.21875 64.59375 
L 8.203125 64.59375 
z
" id="DejaVuSans-37"/>
      </defs>
      <g transform="translate(57.55 218.253069)scale(0.1 -0.1)">
       <use xlink:href="#DejaVuSans-37"/>
       <use x="63.623047" xlink:href="#DejaVuSans-30"/>
       <use x="127.246094" xlink:href="#DejaVuSans-30"/>
       <use x="190.869141" xlink:href="#DejaVuSans-30"/>
      </g>
     </g>
    </g>
    <g id="ytick_3">
     <g id="line2d_8">
      <g>
       <use style="stroke:#000000;stroke-width:0.8;" x="90" xlink:href="#md633c77701" y="159.173763"/>
      </g>
     </g>
     <g id="text_9">
      <!-- 7500 -->
      <g transform="translate(57.55 162.972982)scale(0.1 -0.1)">
       <use xlink:href="#DejaVuSans-37"/>
       <use x="63.623047" xlink:href="#DejaVuSans-35"/>
       <use x="127.246094" xlink:href="#DejaVuSans-30"/>
       <use x="190.869141" xlink:href="#DejaVuSans-30"/>
      </g>
     </g>
    </g>
    <g id="ytick_4">
     <g id="line2d_9">
      <g>
       <use style="stroke:#000000;stroke-width:0.8;" x="90" xlink:href="#md633c77701" y="103.893676"/>
      </g>
     </g>
     <g id="text_10">
      <!-- 8000 -->
      <defs>
       <path d="M 31.78125 34.625 
Q 24.75 34.625 20.71875 30.859375 
Q 16.703125 27.09375 16.703125 20.515625 
Q 16.703125 13.921875 20.71875 10.15625 
Q 24.75 6.390625 31.78125 6.390625 
Q 38.8125 6.390625 42.859375 10.171875 
Q 46.921875 13.96875 46.921875 20.515625 
Q 46.921875 27.09375 42.890625 30.859375 
Q 38.875 34.625 31.78125 34.625 
z
M 21.921875 38.8125 
Q 15.578125 40.375 12.03125 44.71875 
Q 8.5 49.078125 8.5 55.328125 
Q 8.5 64.0625 14.71875 69.140625 
Q 20.953125 74.21875 31.78125 74.21875 
Q 42.671875 74.21875 48.875 69.140625 
Q 55.078125 64.0625 55.078125 55.328125 
Q 55.078125 49.078125 51.53125 44.71875 
Q 48 40.375 41.703125 38.8125 
Q 48.828125 37.15625 52.796875 32.3125 
Q 56.78125 27.484375 56.78125 20.515625 
Q 56.78125 9.90625 50.3125 4.234375 
Q 43.84375 -1.421875 31.78125 -1.421875 
Q 19.734375 -1.421875 13.25 4.234375 
Q 6.78125 9.90625 6.78125 20.515625 
Q 6.78125 27.484375 10.78125 32.3125 
Q 14.796875 37.15625 21.921875 38.8125 
z
M 18.3125 54.390625 
Q 18.3125 48.734375 21.84375 45.5625 
Q 25.390625 42.390625 31.78125 42.390625 
Q 38.140625 42.390625 41.71875 45.5625 
Q 45.3125 48.734375 45.3125 54.390625 
Q 45.3125 60.0625 41.71875 63.234375 
Q 38.140625 66.40625 31.78125 66.40625 
Q 25.390625 66.40625 21.84375 63.234375 
Q 18.3125 60.0625 18.3125 54.390625 
z
" id="DejaVuSans-38"/>
      </defs>
      <g transform="translate(57.55 107.692895)scale(0.1 -0.1)">
       <use xlink:href="#DejaVuSans-38"/>
       <use x="63.623047" xlink:href="#DejaVuSans-30"/>
       <use x="127.246094" xlink:href="#DejaVuSans-30"/>
       <use x="190.869141" xlink:href="#DejaVuSans-30"/>
      </g>
     </g>
    </g>
    <g id="ytick_5">
     <g id="line2d_10">
      <g>
       <use style="stroke:#000000;stroke-width:0.8;" x="90" xlink:href="#md633c77701" y="48.613589"/>
      </g>
     </g>
     <g id="text_11">
      <!-- 8500 -->
      <g transform="translate(57.55 52.412807)scale(0.1 -0.1)">
       <use xlink:href="#DejaVuSans-38"/>
       <use x="63.623047" xlink:href="#DejaVuSans-35"/>
       <use x="127.246094" xlink:href="#DejaVuSans-30"/>
       <use x="190.869141" xlink:href="#DejaVuSans-30"/>
      </g>
     </g>
    </g>
    <g id="text_12">
     <!-- Price (USD) -->
     <defs>
      <path d="M 19.671875 64.796875 
L 19.671875 37.40625 
L 32.078125 37.40625 
Q 38.96875 37.40625 42.71875 40.96875 
Q 46.484375 44.53125 46.484375 51.125 
Q 46.484375 57.671875 42.71875 61.234375 
Q 38.96875 64.796875 32.078125 64.796875 
z
M 9.8125 72.90625 
L 32.078125 72.90625 
Q 44.34375 72.90625 50.609375 67.359375 
Q 56.890625 61.8125 56.890625 51.125 
Q 56.890625 40.328125 50.609375 34.8125 
Q 44.34375 29.296875 32.078125 29.296875 
L 19.671875 29.296875 
L 19.671875 0 
L 9.8125 0 
z
" id="DejaVuSans-50"/>
      <path d="M 41.109375 46.296875 
Q 39.59375 47.171875 37.8125 47.578125 
Q 36.03125 48 33.890625 48 
Q 26.265625 48 22.1875 43.046875 
Q 18.109375 38.09375 18.109375 28.8125 
L 18.109375 0 
L 9.078125 0 
L 9.078125 54.6875 
L 18.109375 54.6875 
L 18.109375 46.1875 
Q 20.953125 51.171875 25.484375 53.578125 
Q 30.03125 56 36.53125 56 
Q 37.453125 56 38.578125 55.875 
Q 39.703125 55.765625 41.0625 55.515625 
z
" id="DejaVuSans-72"/>
      <path d="M 48.78125 52.59375 
L 48.78125 44.1875 
Q 44.96875 46.296875 41.140625 47.34375 
Q 37.3125 48.390625 33.40625 48.390625 
Q 24.65625 48.390625 19.8125 42.84375 
Q 14.984375 37.3125 14.984375 27.296875 
Q 14.984375 17.28125 19.8125 11.734375 
Q 24.65625 6.203125 33.40625 6.203125 
Q 37.3125 6.203125 41.140625 7.25 
Q 44.96875 8.296875 48.78125 10.40625 
L 48.78125 2.09375 
Q 45.015625 0.34375 40.984375 -0.53125 
Q 36.96875 -1.421875 32.421875 -1.421875 
Q 20.0625 -1.421875 12.78125 6.34375 
Q 5.515625 14.109375 5.515625 27.296875 
Q 5.515625 40.671875 12.859375 48.328125 
Q 20.21875 56 33.015625 56 
Q 37.15625 56 41.109375 55.140625 
Q 45.0625 54.296875 48.78125 52.59375 
z
" id="DejaVuSans-63"/>
      <path d="M 8.6875 72.90625 
L 18.609375 72.90625 
L 18.609375 28.609375 
Q 18.609375 16.890625 22.84375 11.734375 
Q 27.09375 6.59375 36.625 6.59375 
Q 46.09375 6.59375 50.34375 11.734375 
Q 54.59375 16.890625 54.59375 28.609375 
L 54.59375 72.90625 
L 64.5 72.90625 
L 64.5 27.390625 
Q 64.5 13.140625 57.4375 5.859375 
Q 50.390625 -1.421875 36.625 -1.421875 
Q 22.796875 -1.421875 15.734375 5.859375 
Q 8.6875 13.140625 8.6875 27.390625 
z
" id="DejaVuSans-55"/>
      <path d="M 53.515625 70.515625 
L 53.515625 60.890625 
Q 47.90625 63.578125 42.921875 64.890625 
Q 37.9375 66.21875 33.296875 66.21875 
Q 25.25 66.21875 20.875 63.09375 
Q 16.5 59.96875 16.5 54.203125 
Q 16.5 49.359375 19.40625 46.890625 
Q 22.3125 44.4375 30.421875 42.921875 
L 36.375 41.703125 
Q 47.40625 39.59375 52.65625 34.296875 
Q 57.90625 29 57.90625 20.125 
Q 57.90625 9.515625 50.796875 4.046875 
Q 43.703125 -1.421875 29.984375 -1.421875 
Q 24.8125 -1.421875 18.96875 -0.25 
Q 13.140625 0.921875 6.890625 3.21875 
L 6.890625 13.375 
Q 12.890625 10.015625 18.65625 8.296875 
Q 24.421875 6.59375 29.984375 6.59375 
Q 38.421875 6.59375 43.015625 9.90625 
Q 47.609375 13.234375 47.609375 19.390625 
Q 47.609375 24.75 44.3125 27.78125 
Q 41.015625 30.8125 33.5 32.328125 
L 27.484375 33.5 
Q 16.453125 35.6875 11.515625 40.375 
Q 6.59375 45.0625 6.59375 53.421875 
Q 6.59375 63.09375 13.40625 68.65625 
Q 20.21875 74.21875 32.171875 74.21875 
Q 37.3125 74.21875 42.625 73.28125 
Q 47.953125 72.359375 53.515625 70.515625 
z
" id="DejaVuSans-53"/>
      <path d="M 19.671875 64.796875 
L 19.671875 8.109375 
L 31.59375 8.109375 
Q 46.6875 8.109375 53.6875 14.9375 
Q 60.6875 21.78125 60.6875 36.53125 
Q 60.6875 51.171875 53.6875 57.984375 
Q 46.6875 64.796875 31.59375 64.796875 
z
M 9.8125 72.90625 
L 30.078125 72.90625 
Q 51.265625 72.90625 61.171875 64.09375 
Q 71.09375 55.28125 71.09375 36.53125 
Q 71.09375 17.671875 61.125 8.828125 
Q 51.171875 0 30.078125 0 
L 9.8125 0 
z
" id="DejaVuSans-44"/>
     </defs>
     <g transform="translate(51.470312 210.258594)rotate(-90)scale(0.1 -0.1)">
      <use xlink:href="#DejaVuSans-50"/>
      <use x="60.287109" xlink:href="#DejaVuSans-72"/>
      <use x="101.400391" xlink:href="#DejaVuSans-69"/>
      <use x="129.183594" xlink:href="#DejaVuSans-63"/>
      <use x="184.164062" xlink:href="#DejaVuSans-65"/>
      <use x="245.6875" xlink:href="#DejaVuSans-20"/>
      <use x="277.474609" xlink:href="#DejaVuSans-28"/>
      <use x="316.488281" xlink:href="#DejaVuSans-55"/>
      <use x="389.681641" xlink:href="#DejaVuSans-53"/>
      <use x="453.158203" xlink:href="#DejaVuSans-44"/>
      <use x="530.160156" xlink:href="#DejaVuSans-29"/>
     </g>
    </g>
   </g>
   <g id="line2d_11">
    <path clip-path="url(#pc636e78c91)" d="M 115.363636 302.319606 
L 116.5919 307.8 
L 117.820163 307.543358 
L 119.048426 306.39689 
L 120.276689 303.163545 
L 121.504953 301.783378 
L 122.733216 296.840237 
L 123.961479 296.243871 
L 125.189742 294.493532 
L 126.418006 294.959472 
L 127.646269 293.8712 
L 128.874532 291.324429 
L 130.102796 293.857325 
L 131.331059 299.838696 
L 132.559322 300.085945 
L 133.787585 298.324162 
L 135.015849 295.834884 
L 136.244112 293.791788 
L 137.472375 287.732195 
L 138.700638 287.309658 
L 139.928902 281.615323 
L 141.157165 281.97621 
L 142.385428 282.45516 
L 143.613691 282.485769 
L 144.841955 282.755907 
L 146.070218 281.469565 
L 147.298481 281.193435 
L 148.526744 280.676912 
L 149.755008 279.812404 
L 150.983271 279.198709 
L 152.211534 278.829725 
L 153.439797 279.106612 
L 155.896324 280.972099 
L 157.124587 280.486454 
L 158.352851 281.725938 
L 159.581114 281.393933 
L 162.03764 282.451597 
L 163.265904 281.670172 
L 164.494167 282.10696 
L 165.72243 285.05165 
L 166.950693 285.539886 
L 168.178957 279.684029 
L 169.40722 280.996392 
L 170.635483 275.365542 
L 171.863746 275.339306 
L 173.09201 271.953455 
L 174.320273 267.689492 
L 175.548536 266.638847 
L 176.776799 266.966802 
L 178.005063 262.066255 
L 179.233326 264.767637 
L 180.461589 271.751013 
L 181.689853 273.918435 
L 182.918116 272.944177 
L 184.146379 270.632131 
L 185.374642 266.767492 
L 186.602906 267.736351 
L 187.831169 267.81371 
L 189.059432 266.729864 
L 191.515959 262.177625 
L 192.744222 261.639076 
L 193.972485 261.327855 
L 195.200748 257.813953 
L 196.429012 250.482647 
L 197.657275 245.747184 
L 198.885538 241.99656 
L 200.113801 240.260474 
L 201.342065 239.540213 
L 202.570328 240.084862 
L 203.798591 239.889493 
L 205.026855 239.198491 
L 206.255118 241.947542 
L 207.483381 219.210853 
L 208.711644 212.857044 
L 209.939908 215.30281 
L 211.168171 209.673041 
L 212.396434 200.999411 
L 213.624697 196.224648 
L 214.852961 192.674306 
L 216.081224 185.886624 
L 217.309487 183.581109 
L 218.53775 176.578623 
L 219.766014 170.798831 
L 220.994277 172.629876 
L 222.22254 169.652309 
L 223.450803 167.12508 
L 224.679067 165.342567 
L 225.90733 164.496847 
L 227.135593 164.56843 
L 228.363856 163.722224 
L 229.59212 164.223146 
L 230.820383 161.753249 
L 232.048646 161.588434 
L 233.27691 158.286475 
L 234.505173 161.77549 
L 235.733436 160.846472 
L 238.189963 157.373165 
L 239.418226 163.418075 
L 240.646489 164.767633 
L 241.874752 166.537945 
L 243.103016 166.666644 
L 246.787805 173.028767 
L 248.016069 173.191746 
L 249.244332 174.668005 
L 250.472595 176.930872 
L 251.700858 178.692169 
L 252.929122 178.074586 
L 254.157385 178.975047 
L 255.385648 177.888016 
L 256.613912 172.911189 
L 257.842175 174.167515 
L 259.070438 172.994703 
L 260.298701 172.659135 
L 261.526965 168.902465 
L 262.755228 170.398212 
L 263.983491 169.150415 
L 265.211754 172.484442 
L 266.440018 172.719814 
L 267.668281 173.101916 
L 268.896544 170.237068 
L 270.124807 169.89146 
L 271.353071 168.767773 
L 272.581334 160.197632 
L 273.809597 162.494077 
L 275.03786 163.249482 
L 276.266124 164.445832 
L 277.494387 166.125828 
L 278.72265 165.996103 
L 279.950913 165.546359 
L 281.179177 167.04961 
L 282.40744 170.201601 
L 284.863967 166.516244 
L 286.09223 167.634856 
L 287.320493 166.917996 
L 288.548756 163.306975 
L 289.77702 161.8095 
L 291.005283 161.145654 
L 292.233546 160.699256 
L 293.461809 160.628482 
L 294.690073 151.013796 
L 295.918336 158.883435 
L 297.146599 159.53222 
L 299.603126 165.240213 
L 300.831389 166.645752 
L 302.059652 166.266134 
L 303.287915 168.915691 
L 304.516179 170.975846 
L 305.744442 174.432849 
L 306.972705 176.162619 
L 308.200969 180.490121 
L 309.429232 182.450081 
L 310.657495 180.634044 
L 311.885758 177.902106 
L 313.114022 175.635353 
L 314.342285 174.313651 
L 315.570548 174.662715 
L 316.798811 176.976866 
L 318.027075 176.760065 
L 319.255338 174.808581 
L 320.483601 173.298905 
L 321.711864 171.976934 
L 322.940128 169.373641 
L 324.168391 168.806264 
L 325.396654 169.705807 
L 326.624917 169.109063 
L 327.853181 169.067171 
L 330.309707 167.484023 
L 331.537971 165.989301 
L 332.766234 165.355416 
L 333.994497 163.429574 
L 335.22276 160.007175 
L 336.451024 158.414094 
L 337.679287 160.745413 
L 338.90755 163.97228 
L 340.135813 165.08992 
L 341.364077 169.212389 
L 342.59234 170.943617 
L 343.820603 165.656811 
L 346.27713 160.498056 
L 347.505393 162.732203 
L 348.733656 160.14516 
L 349.961919 147.591937 
L 351.190183 161.681881 
L 352.418446 168.9131 
L 353.646709 163.144158 
L 354.874972 156.47643 
L 356.103236 154.101383 
L 358.559762 159.985096 
L 359.788026 158.776437 
L 361.016289 163.432867 
L 362.244552 161.070183 
L 363.472815 155.343242 
L 364.701079 156.526311 
L 365.929342 153.971605 
L 367.157605 155.389129 
L 368.385868 148.979176 
L 369.614132 148.316355 
L 370.842395 143.027443 
L 372.070658 135.342809 
L 373.298921 135.928594 
L 374.527185 136.027224 
L 375.755448 135.243586 
L 376.983711 135.150462 
L 378.211974 135.527652 
L 379.440238 135.687608 
L 380.668501 137.080893 
L 381.896764 135.714546 
L 383.125028 135.953535 
L 384.353291 135.32548 
L 385.581554 133.360176 
L 386.809817 135.614189 
L 388.038081 137.468717 
L 389.266344 136.265295 
L 390.494607 136.335259 
L 391.72287 138.216618 
L 392.951134 137.119222 
L 394.179397 134.848311 
L 395.40766 134.429662 
L 396.635923 132.330638 
L 399.09245 117.186 
L 400.320713 119.01224 
L 401.548976 112.840359 
L 402.77724 117.768276 
L 404.005503 123.472436 
L 406.462029 101.85004 
L 407.690293 93.46323 
L 408.918556 93.772669 
L 411.375083 87.96135 
L 412.603346 85.900979 
L 413.831609 81.884427 
L 415.059872 82.221506 
L 416.288136 77.731079 
L 417.516399 78.202255 
L 418.744662 79.134459 
L 419.972925 76.670284 
L 421.201189 69.062578 
L 422.429452 69.225071 
L 423.657715 69.658459 
L 424.885978 67.945856 
L 427.342505 62.286017 
L 428.570768 63.280087 
L 429.799031 64.628727 
L 431.027295 66.224615 
L 432.255558 66.614491 
L 433.483821 68.032339 
L 434.712085 69.642911 
L 437.168611 70.684703 
L 438.396874 72.624473 
L 439.625138 74.996118 
L 440.853401 79.866596 
L 442.081664 84.049366 
L 443.309927 89.572354 
L 444.538191 91.897303 
L 445.766454 89.290825 
L 446.994717 89.52636 
L 448.22298 83.318255 
L 449.451244 86.080855 
L 450.679507 87.165619 
L 451.90777 85.177965 
L 453.136033 84.371653 
L 454.364297 84.369116 
L 455.59256 82.355172 
L 456.820823 82.553943 
L 458.049087 83.66003 
L 459.27735 80.570878 
L 460.505613 78.260667 
L 461.733876 79.766941 
L 462.96214 79.148279 
L 465.418666 71.825179 
L 466.646929 71.400537 
L 467.875193 72.44762 
L 469.103456 74.035087 
L 470.331719 74.929717 
L 471.559982 77.001209 
L 472.788246 77.541486 
L 474.016509 80.360446 
L 475.244772 80.037619 
L 476.473035 78.600769 
L 477.701299 79.725589 
L 478.929562 87.921834 
L 480.157825 92.871075 
L 481.386088 96.720167 
L 485.070878 110.79235 
L 486.299142 112.37782 
L 487.527405 114.774298 
L 488.755668 112.387429 
L 489.983931 109.119696 
L 491.212195 106.700436 
L 492.440458 110.351621 
L 493.668721 106.024874 
L 494.896984 136.572791 
L 496.125248 140.404068 
L 497.353511 127.39133 
L 498.581774 120.561864 
L 499.810037 102.571704 
L 501.038301 104.177526 
L 502.266564 103.704946 
L 503.494827 92.417389 
L 504.72309 88.741534 
L 505.951354 85.743453 
L 507.179617 79.902118 
L 509.636144 73.525905 
L 510.864407 73.08075 
L 512.09267 73.89775 
L 513.320933 75.409531 
L 514.549197 78.615452 
L 515.77746 78.962788 
L 518.233986 84.739881 
L 519.46225 86.298089 
L 520.690513 86.946388 
L 521.918776 87.799559 
L 523.147039 87.880589 
L 524.375303 87.004206 
L 525.603566 86.385004 
L 526.831829 84.908907 
L 528.060092 84.355836 
L 529.288356 84.113392 
L 530.516619 82.50147 
L 532.973145 87.685544 
L 534.201409 87.646783 
L 535.429672 87.200601 
L 536.657935 86.523744 
L 537.886199 83.98669 
L 539.114462 80.810892 
L 540.342725 78.349201 
L 541.570988 81.641281 
L 542.799252 81.390038 
L 544.027515 82.798222 
L 545.255778 82.067003 
L 546.484041 80.957298 
L 547.712305 81.430202 
L 548.940568 85.782429 
L 550.168831 100.893166 
L 551.397094 98.162578 
L 552.625358 94.454115 
L 553.853621 93.493138 
L 555.081884 91.656478 
L 556.310147 92.809964 
L 557.538411 91.504404 
L 558.766674 88.765611 
L 559.994937 85.080307 
L 561.223201 83.138432 
L 562.451464 80.791998 
L 563.679727 80.112441 
L 564.90799 79.800627 
L 566.136254 80.597978 
L 567.364517 89.73231 
L 568.59278 90.723681 
L 569.821043 91.439461 
L 571.049307 83.520534 
L 572.27757 83.544881 
L 573.505833 80.948013 
L 574.734096 80.156817 
L 575.96236 79.597754 
L 577.190623 80.178411 
L 578.418886 81.604572 
L 579.647149 80.961725 
L 580.875413 83.505905 
L 582.103676 85.255001 
L 584.560203 88.213781 
L 585.788466 90.294289 
L 587.016729 87.560084 
L 588.244992 89.20553 
L 589.473256 90.644972 
L 590.701519 91.183197 
L 593.158045 101.945701 
L 594.386309 109.87375 
L 595.614572 112.336737 
L 596.842835 105.919713 
L 598.071098 103.290184 
L 600.527625 98.632836 
L 601.755888 93.342035 
L 602.984151 91.672566 
L 604.212415 92.004192 
L 605.440678 91.648813 
L 606.668941 89.17206 
L 607.897204 89.249311 
L 609.125468 90.057405 
L 611.581994 90.453273 
L 612.810258 88.894418 
L 614.038521 90.438103 
L 615.266784 96.140482 
L 616.495047 100.209722 
L 617.723311 107.088746 
L 618.951574 111.205925 
L 620.179837 114.583301 
L 621.4081 119.250095 
L 622.636364 123.453649 
L 622.636364 123.453649 
" style="fill:none;stroke:#008000;stroke-linecap:square;stroke-width:1.5;"/>
   </g>
   <g id="line2d_12">
    <path clip-path="url(#pc636e78c91)" d="M 115.363636 298.150114 
L 116.5919 298.334749 
L 117.820163 295.402693 
L 119.048426 295.385004 
L 120.276689 298.369023 
L 121.504953 295.715579 
L 122.733216 294.668574 
L 123.961479 295.013521 
L 125.189742 297.253471 
L 126.418006 297.523237 
L 127.646269 297.365136 
L 128.874532 298.240773 
L 130.102796 297.916832 
L 131.331059 297.051145 
L 133.787585 294.064915 
L 136.244112 294.525951 
L 137.472375 290.302552 
L 138.700638 291.475596 
L 139.928902 287.975261 
L 141.157165 285.72315 
L 142.385428 288.103511 
L 143.613691 286.472748 
L 144.841955 286.891771 
L 146.070218 283.553959 
L 147.298481 282.859642 
L 148.526744 283.182477 
L 149.755008 286.054831 
L 150.983271 284.718158 
L 152.211534 283.553959 
L 153.439797 283.280876 
L 154.668061 284.693835 
L 155.896324 286.458375 
L 157.124587 285.898941 
L 158.352851 287.274309 
L 159.581114 286.22841 
L 160.809377 285.414687 
L 162.03764 286.316858 
L 163.265904 285.153765 
L 164.494167 285.153765 
L 165.72243 285.487657 
L 166.950693 284.549001 
L 168.178957 267.778128 
L 169.40722 265.124684 
L 170.635483 255.585552 
L 171.863746 258.372774 
L 173.09201 260.335217 
L 174.320273 256.178155 
L 175.548536 255.582235 
L 176.776799 256.965343 
L 178.005063 251.527994 
L 179.233326 251.526888 
L 180.461589 250.447821 
L 181.689853 251.667299 
L 182.918116 252.045415 
L 184.146379 251.131083 
L 185.374642 244.43777 
L 186.602906 243.553288 
L 187.831169 245.520154 
L 190.287695 242.978375 
L 191.515959 246.343827 
L 192.744222 248.616944 
L 193.972485 250.482094 
L 195.200748 248.298531 
L 196.429012 245.410699 
L 197.657275 247.881719 
L 198.885538 245.530104 
L 200.113801 249.477102 
L 201.342065 247.445006 
L 202.570328 248.337227 
L 203.798591 245.521259 
L 205.026855 238.603509 
L 206.255118 241.097747 
L 207.483381 193.73819 
L 208.711644 176.311696 
L 209.939908 180.389155 
L 211.168171 179.679359 
L 212.396434 174.91311 
L 213.624697 179.055799 
L 214.852961 179.627395 
L 216.081224 176.309485 
L 217.309487 177.39408 
L 218.53775 169.217049 
L 219.766014 163.043369 
L 220.994277 166.027388 
L 222.22254 163.702308 
L 223.450803 163.182675 
L 224.679067 165.850492 
L 225.90733 173.717954 
L 227.135593 170.229781 
L 228.363856 169.67698 
L 229.59212 168.789181 
L 230.820383 167.021324 
L 232.048646 164.896358 
L 233.27691 165.467954 
L 234.505173 168.345835 
L 235.733436 165.906878 
L 236.961699 158.816654 
L 238.189963 167.3718 
L 239.418226 170.783687 
L 240.646489 177.42172 
L 241.874752 178.337158 
L 243.103016 174.431067 
L 244.331279 172.55265 
L 245.559542 176.332702 
L 246.787805 180.7927 
L 248.016069 178.45988 
L 250.472595 179.604178 
L 252.929122 176.751725 
L 254.157385 179.845199 
L 255.385648 178.761709 
L 256.613912 169.710148 
L 257.842175 173.270185 
L 259.070438 168.746063 
L 260.298701 168.338096 
L 261.526965 162.037272 
L 262.755228 165.174969 
L 263.983491 172.61788 
L 265.211754 174.718524 
L 266.440018 168.018577 
L 267.668281 169.233633 
L 268.896544 165.181603 
L 270.124807 168.846673 
L 271.353071 166.469629 
L 272.581334 161.493316 
L 273.809597 162.489463 
L 275.03786 169.673663 
L 276.266124 163.895788 
L 277.494387 164.236314 
L 278.72265 164.022932 
L 279.950913 165.66254 
L 281.179177 168.370158 
L 282.40744 172.476363 
L 283.635703 165.529868 
L 284.863967 163.043369 
L 286.09223 165.806268 
L 287.320493 163.897999 
L 288.548756 160.28047 
L 289.77702 163.927851 
L 291.005283 162.019582 
L 292.233546 162.096974 
L 293.461809 163.20147 
L 294.690073 162.029532 
L 295.918336 178.777188 
L 297.146599 174.370259 
L 298.374862 176.692023 
L 299.603126 176.018711 
L 300.831389 182.3914 
L 302.059652 175.69477 
L 303.287915 177.475894 
L 304.516179 188.047658 
L 306.972705 183.274776 
L 308.200969 182.959679 
L 309.429232 181.398569 
L 310.657495 178.415656 
L 311.885758 177.88165 
L 313.114022 177.970098 
L 314.342285 180.535094 
L 315.570548 179.073489 
L 316.798811 181.453849 
L 318.027075 179.238224 
L 319.255338 177.589771 
L 320.483601 175.682608 
L 321.711864 175.756684 
L 322.940128 171.422725 
L 324.168391 170.228675 
L 325.396654 169.471338 
L 326.624917 167.173897 
L 327.853181 167.280035 
L 329.081444 168.164517 
L 330.309707 169.866038 
L 331.537971 167.464671 
L 332.766234 169.345299 
L 333.994497 166.691855 
L 335.22276 162.822249 
L 336.451024 166.711756 
L 337.679287 168.587962 
L 338.90755 170.824594 
L 340.135813 169.345299 
L 341.364077 171.611783 
L 342.59234 170.957267 
L 343.820603 166.325901 
L 345.048866 166.105886 
L 346.27713 163.99087 
L 347.505393 165.256784 
L 348.733656 165.949996 
L 349.961919 163.928956 
L 352.418446 157.257755 
L 353.646709 157.92775 
L 354.874972 159.63701 
L 356.103236 157.182574 
L 357.331499 157.33957 
L 358.559762 157.16599 
L 359.788026 172.778193 
L 361.016289 169.680297 
L 362.244552 170.229781 
L 363.472815 163.153929 
L 364.701079 158.058211 
L 365.929342 145.604713 
L 367.157605 145.353741 
L 368.385868 140.931334 
L 369.614132 143.043034 
L 370.842395 140.181736 
L 372.070658 132.365132 
L 373.298921 135.955021 
L 374.527185 136.121967 
L 375.755448 138.27789 
L 376.983711 138.537707 
L 379.440238 135.636608 
L 380.668501 137.528292 
L 381.896764 134.240233 
L 383.125028 133.746029 
L 384.353291 134.351898 
L 385.581554 132.362921 
L 386.809817 131.906307 
L 388.038081 136.407212 
L 389.266344 131.64428 
L 390.494607 134.739965 
L 391.72287 134.84168 
L 392.951134 135.956126 
L 394.179397 132.784155 
L 395.40766 133.346906 
L 396.635923 131.076 
L 397.864187 120.477702 
L 399.09245 106.376857 
L 400.320713 106.105985 
L 401.548976 103.12086 
L 402.77724 105.219292 
L 404.005503 102.455288 
L 406.462029 76.253632 
L 407.690293 80.674934 
L 408.918556 77.912035 
L 410.146819 85.664514 
L 411.375083 83.803787 
L 412.603346 84.332264 
L 413.831609 78.641732 
L 415.059872 76.694767 
L 416.288136 75.711887 
L 417.516399 78.576502 
L 418.744662 75.604644 
L 419.972925 69.068327 
L 421.201189 60.770785 
L 422.429452 57.953712 
L 423.657715 58.332934 
L 424.885978 66.523231 
L 426.114242 63.870893 
L 427.342505 57.879637 
L 428.570768 55.8 
L 429.799031 66.645953 
L 431.027295 66.903558 
L 432.255558 71.831225 
L 433.483821 77.483061 
L 434.712085 79.570438 
L 435.940348 83.71755 
L 437.168611 81.3394 
L 438.396874 81.782747 
L 439.625138 83.775041 
L 440.853401 93.390459 
L 442.081664 86.426274 
L 443.309927 92.837658 
L 444.538191 96.498306 
L 445.766454 86.204048 
L 446.994717 84.766766 
L 448.22298 72.273466 
L 449.451244 76.02035 
L 450.679507 86.519144 
L 451.90777 79.016531 
L 453.136033 79.830254 
L 454.364297 83.937564 
L 455.59256 79.571543 
L 456.820823 79.570438 
L 458.049087 82.416256 
L 459.27735 75.590271 
L 460.505613 78.402922 
L 461.733876 77.359234 
L 462.96214 74.59523 
L 464.190403 72.80526 
L 465.418666 76.542194 
L 466.646929 78.795411 
L 467.875193 81.773902 
L 469.103456 80.676039 
L 470.331719 81.597006 
L 472.788246 80.903793 
L 474.016509 79.266397 
L 475.244772 74.817456 
L 476.473035 88.361077 
L 477.701299 109.421685 
L 478.929562 112.451033 
L 480.157825 111.411768 
L 481.386088 115.757888 
L 482.614352 116.055295 
L 483.842615 118.930965 
L 485.070878 117.294675 
L 486.299142 111.631783 
L 487.527405 112.790453 
L 488.755668 114.137076 
L 489.983931 113.845197 
L 491.212195 107.998775 
L 492.440458 109.099955 
L 493.668721 108.819132 
L 494.896984 113.401851 
L 496.125248 123.020586 
L 497.353511 118.808243 
L 498.581774 123.707165 
L 499.810037 87.916625 
L 501.038301 83.440044 
L 502.266564 84.436191 
L 503.494827 73.779296 
L 504.72309 81.265325 
L 505.951354 79.128197 
L 507.179617 76.72683 
L 508.40788 76.253632 
L 509.636144 83.700966 
L 510.864407 85.913275 
L 512.09267 84.817623 
L 513.320933 84.698218 
L 514.549197 86.612015 
L 515.77746 80.676039 
L 517.005723 84.650678 
L 518.233986 82.446108 
L 519.46225 82.334442 
L 520.690513 81.980649 
L 521.918776 83.440044 
L 523.147039 84.435085 
L 524.375303 83.99395 
L 525.603566 84.419607 
L 526.831829 86.732526 
L 528.060092 88.033819 
L 529.288356 92.013985 
L 530.516619 84.052547 
L 531.744882 83.881179 
L 534.201409 82.32228 
L 535.429672 85.751857 
L 536.657935 85.207901 
L 537.886199 83.314005 
L 539.114462 78.754503 
L 540.342725 76.046885 
L 541.570988 75.051843 
L 542.799252 76.850657 
L 544.027515 79.030904 
L 545.255778 82.657278 
L 546.484041 80.805395 
L 547.712305 81.304021 
L 548.940568 84.324525 
L 550.168831 86.386472 
L 551.397094 86.178619 
L 552.625358 87.748574 
L 553.853621 86.102333 
L 555.081884 80.737953 
L 556.310147 82.45053 
L 557.538411 80.207264 
L 558.766674 79.434448 
L 559.994937 84.25045 
L 561.223201 82.743515 
L 562.451464 80.676039 
L 563.679727 80.5301 
L 564.90799 82.519077 
L 567.364517 82.887243 
L 568.59278 79.976193 
L 569.821043 86.204048 
L 571.049307 80.742375 
L 572.27757 82.555562 
L 573.505833 83.696543 
L 574.734096 84.546751 
L 575.96236 84.270351 
L 577.190623 88.462792 
L 578.418886 87.30965 
L 579.647149 86.625282 
L 580.875413 86.770116 
L 582.103676 88.416357 
L 583.331939 86.752426 
L 584.560203 88.416357 
L 585.788466 91.180361 
L 587.016729 84.359904 
L 588.244992 91.179256 
L 589.473256 91.290922 
L 590.701519 114.681032 
L 591.929782 109.277956 
L 593.158045 92.253901 
L 594.386309 87.735306 
L 595.614572 91.453445 
L 596.842835 85.871262 
L 598.071098 85.098446 
L 599.299362 90.064809 
L 600.527625 91.733162 
L 601.755888 91.068696 
L 602.984151 91.443495 
L 604.212415 91.326301 
L 605.440678 90.667362 
L 606.668941 90.35116 
L 607.897204 91.707733 
L 609.125468 101.674733 
L 610.353731 103.370726 
L 611.581994 110.246464 
L 612.810258 106.604611 
L 614.038521 126.336286 
L 615.266784 134.299935 
L 616.495047 133.743817 
L 617.723311 131.424265 
L 618.951574 127.111313 
L 620.179837 134.296618 
L 621.4081 132.639321 
L 622.636364 131.532614 
L 622.636364 131.532614 
" style="fill:none;stroke:#ff0000;stroke-linecap:square;stroke-width:1.5;"/>
   </g>
   <g id="patch_3">
    <path d="M 90 320.4 
L 90 43.2 
" style="fill:none;stroke:#000000;stroke-linecap:square;stroke-linejoin:miter;stroke-width:0.8;"/>
   </g>
   <g id="patch_4">
    <path d="M 648 320.4 
L 648 43.2 
" style="fill:none;stroke:#000000;stroke-linecap:square;stroke-linejoin:miter;stroke-width:0.8;"/>
   </g>
   <g id="patch_5">
    <path d="M 90 320.4 
L 648 320.4 
" style="fill:none;stroke:#000000;stroke-linecap:square;stroke-linejoin:miter;stroke-width:0.8;"/>
   </g>
   <g id="patch_6">
    <path d="M 90 43.2 
L 648 43.2 
" style="fill:none;stroke:#000000;stroke-linecap:square;stroke-linejoin:miter;stroke-width:0.8;"/>
   </g>
   <g id="text_13">
    <!-- Bitcoin Price Over Time -->
    <defs>
     <path d="M 19.671875 34.8125 
L 19.671875 8.109375 
L 35.5 8.109375 
Q 43.453125 8.109375 47.28125 11.40625 
Q 51.125 14.703125 51.125 21.484375 
Q 51.125 28.328125 47.28125 31.5625 
Q 43.453125 34.8125 35.5 34.8125 
z
M 19.671875 64.796875 
L 19.671875 42.828125 
L 34.28125 42.828125 
Q 41.5 42.828125 45.03125 45.53125 
Q 48.578125 48.25 48.578125 53.8125 
Q 48.578125 59.328125 45.03125 62.0625 
Q 41.5 64.796875 34.28125 64.796875 
z
M 9.8125 72.90625 
L 35.015625 72.90625 
Q 46.296875 72.90625 52.390625 68.21875 
Q 58.5 63.53125 58.5 54.890625 
Q 58.5 48.1875 55.375 44.234375 
Q 52.25 40.28125 46.1875 39.3125 
Q 53.46875 37.75 57.5 32.78125 
Q 61.53125 27.828125 61.53125 20.40625 
Q 61.53125 10.640625 54.890625 5.3125 
Q 48.25 0 35.984375 0 
L 9.8125 0 
z
" id="DejaVuSans-42"/>
     <path d="M 18.3125 70.21875 
L 18.3125 54.6875 
L 36.8125 54.6875 
L 36.8125 47.703125 
L 18.3125 47.703125 
L 18.3125 18.015625 
Q 18.3125 11.328125 20.140625 9.421875 
Q 21.96875 7.515625 27.59375 7.515625 
L 36.8125 7.515625 
L 36.8125 0 
L 27.59375 0 
Q 17.1875 0 13.234375 3.875 
Q 9.28125 7.765625 9.28125 18.015625 
L 9.28125 47.703125 
L 2.6875 47.703125 
L 2.6875 54.6875 
L 9.28125 54.6875 
L 9.28125 70.21875 
z
" id="DejaVuSans-74"/>
     <path d="M 30.609375 48.390625 
Q 23.390625 48.390625 19.1875 42.75 
Q 14.984375 37.109375 14.984375 27.296875 
Q 14.984375 17.484375 19.15625 11.84375 
Q 23.34375 6.203125 30.609375 6.203125 
Q 37.796875 6.203125 41.984375 11.859375 
Q 46.1875 17.53125 46.1875 27.296875 
Q 46.1875 37.015625 41.984375 42.703125 
Q 37.796875 48.390625 30.609375 48.390625 
z
M 30.609375 56 
Q 42.328125 56 49.015625 48.375 
Q 55.71875 40.765625 55.71875 27.296875 
Q 55.71875 13.875 49.015625 6.21875 
Q 42.328125 -1.421875 30.609375 -1.421875 
Q 18.84375 -1.421875 12.171875 6.21875 
Q 5.515625 13.875 5.515625 27.296875 
Q 5.515625 40.765625 12.171875 48.375 
Q 18.84375 56 30.609375 56 
z
" id="DejaVuSans-6f"/>
     <path d="M 39.40625 66.21875 
Q 28.65625 66.21875 22.328125 58.203125 
Q 16.015625 50.203125 16.015625 36.375 
Q 16.015625 22.609375 22.328125 14.59375 
Q 28.65625 6.59375 39.40625 6.59375 
Q 50.140625 6.59375 56.421875 14.59375 
Q 62.703125 22.609375 62.703125 36.375 
Q 62.703125 50.203125 56.421875 58.203125 
Q 50.140625 66.21875 39.40625 66.21875 
z
M 39.40625 74.21875 
Q 54.734375 74.21875 63.90625 63.9375 
Q 73.09375 53.65625 73.09375 36.375 
Q 73.09375 19.140625 63.90625 8.859375 
Q 54.734375 -1.421875 39.40625 -1.421875 
Q 24.03125 -1.421875 14.8125 8.828125 
Q 5.609375 19.09375 5.609375 36.375 
Q 5.609375 53.65625 14.8125 63.9375 
Q 24.03125 74.21875 39.40625 74.21875 
z
" id="DejaVuSans-4f"/>
     <path d="M 2.984375 54.6875 
L 12.5 54.6875 
L 29.59375 8.796875 
L 46.6875 54.6875 
L 56.203125 54.6875 
L 35.6875 0 
L 23.484375 0 
z
" id="DejaVuSans-76"/>
    </defs>
    <g transform="translate(298.665 37.2)scale(0.12 -0.12)">
     <use xlink:href="#DejaVuSans-42"/>
     <use x="68.603516" xlink:href="#DejaVuSans-69"/>
     <use x="96.386719" xlink:href="#DejaVuSans-74"/>
     <use x="135.595703" xlink:href="#DejaVuSans-63"/>
     <use x="190.576172" xlink:href="#DejaVuSans-6f"/>
     <use x="251.757812" xlink:href="#DejaVuSans-69"/>
     <use x="279.541016" xlink:href="#DejaVuSans-6e"/>
     <use x="342.919922" xlink:href="#DejaVuSans-20"/>
     <use x="374.707031" xlink:href="#DejaVuSans-50"/>
     <use x="434.994141" xlink:href="#DejaVuSans-72"/>
     <use x="476.107422" xlink:href="#DejaVuSans-69"/>
     <use x="503.890625" xlink:href="#DejaVuSans-63"/>
     <use x="558.871094" xlink:href="#DejaVuSans-65"/>
     <use x="620.394531" xlink:href="#DejaVuSans-20"/>
     <use x="652.181641" xlink:href="#DejaVuSans-4f"/>
     <use x="730.892578" xlink:href="#DejaVuSans-76"/>
     <use x="790.072266" xlink:href="#DejaVuSans-65"/>
     <use x="851.595703" xlink:href="#DejaVuSans-72"/>
     <use x="892.708984" xlink:href="#DejaVuSans-20"/>
     <use x="924.496094" xlink:href="#DejaVuSans-54"/>
     <use x="985.533203" xlink:href="#DejaVuSans-69"/>
     <use x="1013.316406" xlink:href="#DejaVuSans-6d"/>
     <use x="1110.728516" xlink:href="#DejaVuSans-65"/>
    </g>
   </g>
   <g id="legend_1">
    <g id="patch_7">
     <path d="M 97 80.55625 
L 204.082812 80.55625 
Q 206.082812 80.55625 206.082812 78.55625 
L 206.082812 50.2 
Q 206.082812 48.2 204.082812 48.2 
L 97 48.2 
Q 95 48.2 95 50.2 
L 95 78.55625 
Q 95 80.55625 97 80.55625 
z
" style="fill:#ffffff;opacity:0.8;stroke:#cccccc;stroke-linejoin:miter;"/>
    </g>
    <g id="line2d_13">
     <path d="M 99 56.298437 
L 119 56.298437 
" style="fill:none;stroke:#008000;stroke-linecap:square;stroke-width:1.5;"/>
    </g>
    <g id="line2d_14"/>
    <g id="text_14">
     <!-- Predicted Price -->
     <g transform="translate(127 59.798437)scale(0.1 -0.1)">
      <use xlink:href="#DejaVuSans-50"/>
      <use x="60.287109" xlink:href="#DejaVuSans-72"/>
      <use x="101.369141" xlink:href="#DejaVuSans-65"/>
      <use x="162.892578" xlink:href="#DejaVuSans-64"/>
      <use x="226.369141" xlink:href="#DejaVuSans-69"/>
      <use x="254.152344" xlink:href="#DejaVuSans-63"/>
      <use x="309.132812" xlink:href="#DejaVuSans-74"/>
      <use x="348.341797" xlink:href="#DejaVuSans-65"/>
      <use x="409.865234" xlink:href="#DejaVuSans-64"/>
      <use x="473.341797" xlink:href="#DejaVuSans-20"/>
      <use x="505.128906" xlink:href="#DejaVuSans-50"/>
      <use x="565.416016" xlink:href="#DejaVuSans-72"/>
      <use x="606.529297" xlink:href="#DejaVuSans-69"/>
      <use x="634.3125" xlink:href="#DejaVuSans-63"/>
      <use x="689.292969" xlink:href="#DejaVuSans-65"/>
     </g>
    </g>
    <g id="line2d_15">
     <path d="M 99 70.976562 
L 119 70.976562 
" style="fill:none;stroke:#ff0000;stroke-linecap:square;stroke-width:1.5;"/>
    </g>
    <g id="line2d_16"/>
    <g id="text_15">
     <!-- Real Price -->
     <defs>
      <path d="M 44.390625 34.1875 
Q 47.5625 33.109375 50.5625 29.59375 
Q 53.5625 26.078125 56.59375 19.921875 
L 66.609375 0 
L 56 0 
L 46.6875 18.703125 
Q 43.0625 26.03125 39.671875 28.421875 
Q 36.28125 30.8125 30.421875 30.8125 
L 19.671875 30.8125 
L 19.671875 0 
L 9.8125 0 
L 9.8125 72.90625 
L 32.078125 72.90625 
Q 44.578125 72.90625 50.734375 67.671875 
Q 56.890625 62.453125 56.890625 51.90625 
Q 56.890625 45.015625 53.6875 40.46875 
Q 50.484375 35.9375 44.390625 34.1875 
z
M 19.671875 64.796875 
L 19.671875 38.921875 
L 32.078125 38.921875 
Q 39.203125 38.921875 42.84375 42.21875 
Q 46.484375 45.515625 46.484375 51.90625 
Q 46.484375 58.296875 42.84375 61.546875 
Q 39.203125 64.796875 32.078125 64.796875 
z
" id="DejaVuSans-52"/>
     </defs>
     <g transform="translate(127 74.476562)scale(0.1 -0.1)">
      <use xlink:href="#DejaVuSans-52"/>
      <use x="69.419922" xlink:href="#DejaVuSans-65"/>
      <use x="130.943359" xlink:href="#DejaVuSans-61"/>
      <use x="192.222656" xlink:href="#DejaVuSans-6c"/>
      <use x="220.005859" xlink:href="#DejaVuSans-20"/>
      <use x="251.792969" xlink:href="#DejaVuSans-50"/>
      <use x="312.080078" xlink:href="#DejaVuSans-72"/>
      <use x="353.193359" xlink:href="#DejaVuSans-69"/>
      <use x="380.976562" xlink:href="#DejaVuSans-63"/>
      <use x="435.957031" xlink:href="#DejaVuSans-65"/>
     </g>
    </g>
   </g>
  </g>
 </g>
 <defs>
  <clipPath id="pc636e78c91">
   <rect height="277.2" width="558" x="90" y="43.2"/>
  </clipPath>
 </defs>
</svg>
